Vidaloka-Regular-OTF.ufo
<glyph name="quotedbl" format="1">
  <advance width="290"/>
  <unicode hex="0022"/>
  <outline>
    <contour>
      <point x="216" y="462" type="line"/>
      <point x="231" y="551"/>
      <point x="246" y="615"/>
      <point x="246" y="649" type="curve" smooth="yes"/>
      <point x="246" y="665"/>
      <point x="246" y="714"/>
      <point x="206" y="714" type="curve" smooth="yes"/>
      <point x="166" y="714"/>
      <point x="164" y="665"/>
      <point x="164" y="649" type="curve" smooth="yes"/>
      <point x="164" y="615"/>
      <point x="179" y="551"/>
      <point x="194" y="462" type="curve"/>
    </contour>
    <contour>
      <point x="96" y="462" type="line"/>
      <point x="111" y="551"/>
      <point x="126" y="615"/>
      <point x="126" y="649" type="curve" smooth="yes"/>
      <point x="126" y="665"/>
      <point x="126" y="714"/>
      <point x="86" y="714" type="curve" smooth="yes"/>
      <point x="45" y="714"/>
      <point x="44" y="665"/>
      <point x="44" y="649" type="curve" smooth="yes"/>
      <point x="44" y="615"/>
      <point x="59" y="551"/>
      <point x="74" y="462" type="curve"/>
    </contour>
  </outline>
</glyph>
<glyph name="numbersign" format="1">
  <advance width="666"/>
  <unicode hex="0023"/>
  <outline>
    <contour>
      <point x="184" y="-17" type="line"/>
      <point x="220" y="197" type="line"/>
      <point x="397" y="197" type="line"/>
      <point x="362" y="-17" type="line"/>
      <point x="422" y="-17" type="line"/>
      <point x="458" y="197" type="line"/>
      <point x="603" y="197" type="line"/>
      <point x="612" y="262" type="line"/>
      <point x="469" y="262" type="line"/>
      <point x="500" y="447" type="line"/>
      <point x="643" y="447" type="line"/>
      <point x="652" y="512" type="line"/>
      <point x="511" y="512" type="line"/>
      <point x="545" y="714" type="line"/>
      <point x="485" y="714" type="line"/>
      <point x="451" y="512" type="line"/>
      <point x="273" y="512" type="line"/>
      <point x="307" y="714" type="line"/>
      <point x="247" y="714" type="line"/>
      <point x="213" y="512" type="line"/>
      <point x="64" y="512" type="line"/>
      <point x="55" y="447" type="line"/>
      <point x="202" y="447" type="line"/>
      <point x="171" y="262" type="line"/>
      <point x="22" y="262" type="line"/>
      <point x="13" y="197" type="line"/>
      <point x="160" y="197" type="line"/>
      <point x="124" y="-17" type="line"/>
    </contour>
    <contour>
      <point x="262" y="447" type="line"/>
      <point x="439" y="447" type="line"/>
      <point x="409" y="262" type="line"/>
      <point x="231" y="262" type="line"/>
    </contour>
  </outline>
</glyph>
<glyph name="parenleft" format="1">
  <advance width="270"/>
  <unicode hex="0028"/>
  <outline>
    <contour>
      <point x="142" y="384"/>
      <point x="160" y="564"/>
      <point x="253" y="696" type="curve"/>
      <point x="234" y="714" type="line"/>
      <point x="126" y="604"/>
      <point x="31" y="421"/>
      <point x="31" y="235" type="curve" smooth="yes"/>
      <point x="31" y="49"/>
      <point x="126" y="-132"/>
      <point x="234" y="-242" type="curve"/>
      <point x="253" y="-224" type="line"/>
      <point x="160" y="-92"/>
      <point x="142" y="86"/>
      <point x="142" y="235" type="curve" smooth="yes"/>
    </contour>
  </outline>
</glyph>
<glyph name="parenright" format="1">
  <advance width="270"/>
  <unicode hex="0029"/>
  <outline>
    <contour>
      <point x="128" y="384"/>
      <point x="110" y="564"/>
      <point x="16" y="696" type="curve"/>
      <point x="35" y="714" type="line"/>
      <point x="143" y="604"/>
      <point x="238" y="421"/>
      <point x="238" y="235" type="curve" smooth="yes"/>
      <point x="238" y="49"/>
      <point x="143" y="-132"/>
      <point x="35" y="-242" type="curve"/>
      <point x="16" y="-224" type="line"/>
      <point x="110" y="-92"/>
      <point x="128" y="86"/>
      <point x="128" y="235" type="curve" smooth="yes"/>
    </contour>
  </outline>
</glyph>
<glyph name="comma" format="1">
  <advance width="224"/>
  <unicode hex="002C"/>
  <outline>
    <contour>
      <point x="68" y="-141" type="line"/>
      <point x="158" y="-96"/>
      <point x="180" y="-26"/>
      <point x="180" y="29" type="curve" smooth="yes"/>
      <point x="180" y="73"/>
      <point x="159" y="117"/>
      <point x="110" y="117" type="curve" smooth="yes"/>
      <point x="62" y="117"/>
      <point x="45" y="77"/>
      <point x="45" y="50" type="curve" smooth="yes"/>
      <point x="45" y="11"/>
      <point x="72" y="-17"/>
      <point x="106" y="-17" type="curve" smooth="yes"/>
      <point x="116" y="-17"/>
      <point x="124" y="-16"/>
      <point x="136" y="-8" type="curve"/>
      <point x="138" y="-8" type="line"/>
      <point x="138" y="-36"/>
      <point x="123" y="-86"/>
      <point x="60" y="-116" type="curve"/>
    </contour>
  </outline>
</glyph>
<glyph name="slash" format="1">
  <advance width="415"/>
  <unicode hex="002F"/>
  <outline>
    <contour>
      <point x="32" y="-242" type="line"/>
      <point x="443" y="714" type="line"/>
      <point x="383" y="714" type="line"/>
      <point x="-27" y="-242" type="line"/>
    </contour>
  </outline>
</glyph>
<glyph name="one" format="1">
  <advance width="359"/>
  <unicode hex="0031"/>
  <outline>
    <contour>
      <point x="255" y="714" type="line"/>
      <point x="228" y="714" type="line"/>
      <point x="14" y="655" type="line"/>
      <point x="21" y="629" type="line"/>
      <point x="135" y="656" type="line"/>
      <point x="135" y="27" type="line"/>
      <point x="60" y="22" type="line"/>
      <point x="60" y="0" type="line"/>
      <point x="330" y="0" type="line"/>
      <point x="330" y="22" type="line"/>
      <point x="255" y="27" type="line"/>
    </contour>
  </outline>
</glyph>
<glyph name="five" format="1">
  <advance width="502"/>
  <unicode hex="0035"/>
  <outline>
    <contour>
      <point x="75" y="360" type="line"/>
      <point x="97" y="347" type="line"/>
      <point x="119" y="371"/>
      <point x="160" y="393"/>
      <point x="203" y="393" type="curve" smooth="yes"/>
      <point x="338" y="393"/>
      <point x="338" y="262"/>
      <point x="338" y="193" type="curve" smooth="yes"/>
      <point x="338" y="89"/>
      <point x="301" y="11"/>
      <point x="220" y="11" type="curve" smooth="yes"/>
      <point x="147" y="11"/>
      <point x="121" y="40"/>
      <point x="113" y="49" type="curve"/>
      <point x="113" y="51" type="line"/>
      <point x="155" y="51"/>
      <point x="186" y="76"/>
      <point x="186" y="121" type="curve" smooth="yes"/>
      <point x="186" y="161"/>
      <point x="158" y="188"/>
      <point x="115" y="188" type="curve" smooth="yes"/>
      <point x="69" y="188"/>
      <point x="42" y="151"/>
      <point x="42" y="113" type="curve" smooth="yes"/>
      <point x="42" y="40"/>
      <point x="112" y="-17"/>
      <point x="236" y="-17" type="curve" smooth="yes"/>
      <point x="397" y="-17"/>
      <point x="469" y="100"/>
      <point x="469" y="194" type="curve" smooth="yes"/>
      <point x="469" y="308"/>
      <point x="413" y="422"/>
      <point x="230" y="422" type="curve" smooth="yes"/>
      <point x="173" y="422"/>
      <point x="130" y="405"/>
      <point x="99" y="384" type="curve"/>
      <point x="99" y="608" type="line"/>
      <point x="418" y="605" type="line"/>
      <point x="423" y="766" type="line"/>
      <point x="396" y="766" type="line"/>
      <point x="389" y="698"/>
      <point x="371" y="697"/>
      <point x="265" y="697" type="curve" smooth="yes"/>
      <point x="73" y="697" type="line"/>
    </contour>
  </outline>
</glyph>
<glyph name="six" format="1">
  <advance width="548"/>
  <unicode hex="0036"/>
  <outline>
    <contour>
      <point x="176" y="369" type="line"/>
      <point x="176" y="373"/>
      <point x="176" y="378"/>
      <point x="176" y="384" type="curve" smooth="yes"/>
      <point x="176" y="420"/>
      <point x="178" y="469"/>
      <point x="178" y="503" type="curve" smooth="yes"/>
      <point x="178" y="613"/>
      <point x="215" y="687"/>
      <point x="317" y="687" type="curve" smooth="yes"/>
      <point x="370" y="687"/>
      <point x="400" y="665"/>
      <point x="408" y="646" type="curve"/>
      <point x="408" y="644" type="line"/>
      <point x="370" y="641"/>
      <point x="343" y="613"/>
      <point x="343" y="575" type="curve" smooth="yes"/>
      <point x="343" y="535"/>
      <point x="372" y="509"/>
      <point x="408" y="509" type="curve" smooth="yes"/>
      <point x="458" y="509"/>
      <point x="477" y="547"/>
      <point x="477" y="583" type="curve" smooth="yes"/>
      <point x="477" y="622"/>
      <point x="454" y="714"/>
      <point x="304" y="714" type="curve" smooth="yes"/>
      <point x="137" y="714"/>
      <point x="50" y="574"/>
      <point x="50" y="303" type="curve" smooth="yes"/>
      <point x="50" y="170"/>
      <point x="67" y="-17"/>
      <point x="276" y="-17" type="curve" smooth="yes"/>
      <point x="447" y="-17"/>
      <point x="505" y="115"/>
      <point x="505" y="209" type="curve" smooth="yes"/>
      <point x="505" y="327"/>
      <point x="451" y="432"/>
      <point x="305" y="432" type="curve" smooth="yes"/>
      <point x="247" y="432"/>
      <point x="202" y="407"/>
      <point x="177" y="369" type="curve"/>
    </contour>
    <contour>
      <point x="370" y="398"/>
      <point x="376" y="300"/>
      <point x="376" y="199" type="curve" smooth="yes"/>
      <point x="376" y="95"/>
      <point x="346" y="10"/>
      <point x="271" y="10" type="curve" smooth="yes"/>
      <point x="220" y="10"/>
      <point x="176" y="60"/>
      <point x="176" y="278" type="curve" smooth="yes"/>
      <point x="176" y="289"/>
      <point x="176" y="301"/>
      <point x="176" y="313" type="curve"/>
      <point x="187" y="363"/>
      <point x="235" y="398"/>
      <point x="280" y="398" type="curve" smooth="yes"/>
    </contour>
  </outline>
</glyph>
<glyph name="seven" format="1">
  <advance width="422"/>
  <unicode hex="0037"/>
  <outline>
    <contour>
      <point x="366" y="606" type="line"/>
      <point x="336" y="572"/>
      <point x="279" y="473"/>
      <point x="241" y="390" type="curve" smooth="yes"/>
      <point x="176" y="247"/>
      <point x="126" y="143"/>
      <point x="126" y="52" type="curve" smooth="yes"/>
      <point x="126" y="28"/>
      <point x="130" y="-24"/>
      <point x="180" y="-24" type="curve" smooth="yes"/>
      <point x="227" y="-24"/>
      <point x="239" y="21"/>
      <point x="239" y="53" type="curve" smooth="yes"/>
      <point x="239" y="220"/>
      <point x="265" y="428"/>
      <point x="416" y="627" type="curve"/>
      <point x="416" y="697" type="line"/>
      <point x="30" y="697" type="line"/>
      <point x="25" y="516" type="line"/>
      <point x="52" y="516" type="line"/>
      <point x="59" y="595"/>
      <point x="83" y="604"/>
      <point x="188" y="605" type="curve" smooth="yes"/>
      <point x="366" y="607" type="line"/>
    </contour>
  </outline>
</glyph>
<glyph name="eight" format="1">
  <advance width="554"/>
  <unicode hex="0038"/>
  <outline>
    <contour>
      <point x="312" y="416" type="line" smooth="yes"/>
      <point x="246" y="463"/>
      <point x="162" y="521"/>
      <point x="162" y="598" type="curve" smooth="yes"/>
      <point x="162" y="652"/>
      <point x="214" y="687"/>
      <point x="272" y="687" type="curve" smooth="yes"/>
      <point x="344" y="687"/>
      <point x="396" y="646"/>
      <point x="396" y="559" type="curve" smooth="yes"/>
      <point x="396" y="518"/>
      <point x="385" y="460"/>
      <point x="320" y="409" type="curve"/>
    </contour>
    <contour>
      <point x="467" y="650"/>
      <point x="378" y="714"/>
      <point x="279" y="714" type="curve" smooth="yes"/>
      <point x="155" y="714"/>
      <point x="64" y="638"/>
      <point x="64" y="536" type="curve" smooth="yes"/>
      <point x="64" y="480"/>
      <point x="103" y="404"/>
      <point x="196" y="336" type="curve"/>
      <point x="128" y="294"/>
      <point x="57" y="235"/>
      <point x="57" y="151" type="curve" smooth="yes"/>
      <point x="57" y="43"/>
      <point x="142" y="-17"/>
      <point x="286" y="-17" type="curve" smooth="yes"/>
      <point x="440" y="-17"/>
      <point x="511" y="76"/>
      <point x="511" y="170" type="curve" smooth="yes"/>
      <point x="511" y="280"/>
      <point x="424" y="338"/>
      <point x="342" y="395" type="curve"/>
      <point x="409" y="437"/>
      <point x="467" y="483"/>
      <point x="467" y="568" type="curve" smooth="yes"/>
    </contour>
    <contour>
      <point x="419" y="49"/>
      <point x="355" y="10"/>
      <point x="286" y="10" type="curve" smooth="yes"/>
      <point x="171" y="10"/>
      <point x="139" y="98"/>
      <point x="139" y="156" type="curve" smooth="yes"/>
      <point x="139" y="230"/>
      <point x="175" y="278"/>
      <point x="224" y="317" type="curve"/>
      <point x="377" y="214"/>
      <point x="419" y="182"/>
      <point x="419" y="122" type="curve" smooth="yes"/>
    </contour>
  </outline>
</glyph>
<glyph name="nine" format="1">
  <advance width="548"/>
  <unicode hex="0039"/>
  <outline>
    <contour>
      <point x="100" y="714"/>
      <point x="42" y="582"/>
      <point x="42" y="488" type="curve" smooth="yes"/>
      <point x="42" y="370"/>
      <point x="96" y="265"/>
      <point x="242" y="265" type="curve" smooth="yes"/>
      <point x="301" y="265"/>
      <point x="347" y="291"/>
      <point x="371" y="330" type="curve"/>
      <point x="371" y="149"/>
      <point x="370" y="10"/>
      <point x="240" y="10" type="curve" smooth="yes"/>
      <point x="188" y="10"/>
      <point x="152" y="32"/>
      <point x="144" y="51" type="curve"/>
      <point x="144" y="53" type="line"/>
      <point x="182" y="56"/>
      <point x="209" y="83"/>
      <point x="209" y="122" type="curve" smooth="yes"/>
      <point x="209" y="162"/>
      <point x="182" y="188"/>
      <point x="146" y="188" type="curve" smooth="yes"/>
      <point x="95" y="188"/>
      <point x="75" y="149"/>
      <point x="75" y="114" type="curve" smooth="yes"/>
      <point x="75" y="75"/>
      <point x="99" y="-17"/>
      <point x="249" y="-17" type="curve" smooth="yes"/>
      <point x="420" y="-17"/>
      <point x="497" y="123"/>
      <point x="497" y="394" type="curve" smooth="yes"/>
      <point x="497" y="527"/>
      <point x="480" y="714"/>
      <point x="271" y="714" type="curve" smooth="yes"/>
    </contour>
    <contour>
      <point x="177" y="299"/>
      <point x="171" y="396"/>
      <point x="171" y="498" type="curve" smooth="yes"/>
      <point x="171" y="602"/>
      <point x="201" y="687"/>
      <point x="276" y="687" type="curve" smooth="yes"/>
      <point x="327" y="687"/>
      <point x="372" y="637"/>
      <point x="372" y="419" type="curve" smooth="yes"/>
      <point x="372" y="408"/>
      <point x="371" y="396"/>
      <point x="371" y="384" type="curve"/>
      <point x="360" y="334"/>
      <point x="312" y="299"/>
      <point x="267" y="299" type="curve" smooth="yes"/>
    </contour>
  </outline>
</glyph>
<glyph name="semicolon" format="1">
  <advance width="253"/>
  <unicode hex="003B"/>
  <outline>
    <contour>
      <point x="57" y="397"/>
      <point x="85" y="371"/>
      <point x="125" y="371" type="curve" smooth="yes"/>
      <point x="166" y="371"/>
      <point x="192" y="397"/>
      <point x="192" y="437" type="curve" smooth="yes"/>
      <point x="192" y="478"/>
      <point x="166" y="505"/>
      <point x="125" y="505" type="curve" smooth="yes"/>
      <point x="85" y="505"/>
      <point x="57" y="478"/>
      <point x="57" y="437" type="curve" smooth="yes"/>
    </contour>
    <contour>
      <point x="83" y="-141" type="line"/>
      <point x="173" y="-96"/>
      <point x="195" y="-26"/>
      <point x="195" y="29" type="curve" smooth="yes"/>
      <point x="195" y="73"/>
      <point x="174" y="117"/>
      <point x="125" y="117" type="curve" smooth="yes"/>
      <point x="77" y="117"/>
      <point x="60" y="77"/>
      <point x="60" y="50" type="curve" smooth="yes"/>
      <point x="60" y="11"/>
      <point x="87" y="-17"/>
      <point x="121" y="-17" type="curve" smooth="yes"/>
      <point x="131" y="-17"/>
      <point x="139" y="-16"/>
      <point x="151" y="-8" type="curve"/>
      <point x="153" y="-8" type="line"/>
      <point x="153" y="-36"/>
      <point x="138" y="-86"/>
      <point x="75" y="-116" type="curve"/>
    </contour>
  </outline>
</glyph>
<glyph name="question" format="1">
  <advance width="414"/>
  <unicode hex="003F"/>
  <outline>
    <contour>
      <point x="285" y="423"/>
      <point x="174" y="334"/>
      <point x="174" y="243" type="curve" smooth="yes"/>
      <point x="174" y="228"/>
      <point x="177" y="213"/>
      <point x="184" y="198" type="curve"/>
      <point x="210" y="198" type="line"/>
      <point x="207" y="208"/>
      <point x="206" y="218"/>
      <point x="206" y="228" type="curve" smooth="yes"/>
      <point x="206" y="336"/>
      <point x="397" y="408"/>
      <point x="397" y="548" type="curve" smooth="yes"/>
      <point x="397" y="635"/>
      <point x="335" y="714"/>
      <point x="210" y="714" type="curve" smooth="yes"/>
      <point x="62" y="714"/>
      <point x="9" y="626"/>
      <point x="9" y="565" type="curve" smooth="yes"/>
      <point x="9" y="530"/>
      <point x="32" y="499"/>
      <point x="73" y="499" type="curve" smooth="yes"/>
      <point x="112" y="499"/>
      <point x="136" y="525"/>
      <point x="136" y="561" type="curve" smooth="yes"/>
      <point x="136" y="599"/>
      <point x="116" y="620"/>
      <point x="74" y="620" type="curve" smooth="yes"/>
      <point x="67" y="620" type="line"/>
      <point x="67" y="623" type="line"/>
      <point x="73" y="646"/>
      <point x="117" y="686"/>
      <point x="177" y="686" type="curve" smooth="yes"/>
      <point x="244" y="686"/>
      <point x="285" y="644"/>
      <point x="285" y="555" type="curve" smooth="yes"/>
    </contour>
    <contour>
      <point x="144" y="6"/>
      <point x="168" y="-17"/>
      <point x="204" y="-17" type="curve" smooth="yes"/>
      <point x="240" y="-17"/>
      <point x="264" y="6"/>
      <point x="264" y="42" type="curve" smooth="yes"/>
      <point x="264" y="79"/>
      <point x="240" y="103"/>
      <point x="204" y="103" type="curve" smooth="yes"/>
      <point x="168" y="103"/>
      <point x="144" y="79"/>
      <point x="144" y="42" type="curve" smooth="yes"/>
    </contour>
  </outline>
</glyph>
<glyph name="B" format="1">
  <advance width="626"/>
  <unicode hex="0042"/>
  <outline>
    <contour>
      <point x="111" y="670" type="line"/>
      <point x="111" y="27" type="line"/>
      <point x="36" y="22" type="line"/>
      <point x="36" y="0" type="line"/>
      <point x="318" y="0" type="line" smooth="yes"/>
      <point x="448" y="0"/>
      <point x="583" y="51"/>
      <point x="583" y="195" type="curve" smooth="yes"/>
      <point x="583" y="322"/>
      <point x="483" y="382"/>
      <point x="353" y="382" type="curve"/>
      <point x="353" y="384" type="line"/>
      <point x="430" y="394"/>
      <point x="548" y="437"/>
      <point x="548" y="540" type="curve" smooth="yes"/>
      <point x="548" y="669"/>
      <point x="427" y="697"/>
      <point x="297" y="697" type="curve" smooth="yes"/>
      <point x="36" y="697" type="line"/>
      <point x="36" y="675" type="line"/>
    </contour>
    <contour>
      <point x="236" y="360" type="line"/>
      <point x="251" y="363"/>
      <point x="263" y="364"/>
      <point x="281" y="364" type="curve" smooth="yes"/>
      <point x="387" y="364"/>
      <point x="453" y="305"/>
      <point x="453" y="194" type="curve" smooth="yes"/>
      <point x="453" y="92"/>
      <point x="391" y="27"/>
      <point x="287" y="27" type="curve" smooth="yes"/>
      <point x="276" y="27"/>
      <point x="257" y="28"/>
      <point x="236" y="32" type="curve"/>
    </contour>
    <contour>
      <point x="236" y="665" type="line"/>
      <point x="257" y="669"/>
      <point x="276" y="670"/>
      <point x="287" y="670" type="curve" smooth="yes"/>
      <point x="381" y="670"/>
      <point x="421" y="617"/>
      <point x="421" y="537" type="curve" smooth="yes"/>
      <point x="421" y="440"/>
      <point x="374" y="391"/>
      <point x="273" y="391" type="curve" smooth="yes"/>
      <point x="260" y="391"/>
      <point x="250" y="392"/>
      <point x="236" y="394" type="curve"/>
    </contour>
  </outline>
</glyph>
<glyph name="C" format="1">
  <advance width="612"/>
  <unicode hex="0043"/>
  <outline>
    <contour>
      <point x="451" y="686"/>
      <point x="492" y="650"/>
      <point x="498" y="638" type="curve"/>
      <point x="498" y="636" type="line"/>
      <point x="496" y="637"/>
      <point x="493" y="637"/>
      <point x="490" y="637" type="curve" smooth="yes"/>
      <point x="455" y="637"/>
      <point x="427" y="607"/>
      <point x="427" y="570" type="curve" smooth="yes"/>
      <point x="427" y="532"/>
      <point x="455" y="503"/>
      <point x="496" y="503" type="curve" smooth="yes"/>
      <point x="540" y="503"/>
      <point x="564" y="537"/>
      <point x="564" y="573" type="curve" smooth="yes"/>
      <point x="564" y="650"/>
      <point x="472" y="714"/>
      <point x="372" y="714" type="curve" smooth="yes"/>
      <point x="146" y="714"/>
      <point x="48" y="512"/>
      <point x="48" y="336" type="curve" smooth="yes"/>
      <point x="48" y="159"/>
      <point x="109" y="-17"/>
      <point x="357" y="-17" type="curve" smooth="yes"/>
      <point x="475" y="-17"/>
      <point x="548" y="47"/>
      <point x="592" y="155" type="curve"/>
      <point x="569" y="166" type="line"/>
      <point x="534" y="87"/>
      <point x="467" y="19"/>
      <point x="368" y="19" type="curve" smooth="yes"/>
      <point x="234" y="19"/>
      <point x="178" y="183"/>
      <point x="178" y="350" type="curve" smooth="yes"/>
      <point x="178" y="555"/>
      <point x="264" y="686"/>
      <point x="381" y="686" type="curve" smooth="yes"/>
    </contour>
    <contour>
      <point x="384" y="697" type="move" name="top"/>
    </contour>
    <contour>
      <point x="306" y="0" type="move" name="bottom"/>
    </contour>
  </outline>
</glyph>
<glyph name="D" format="1">
  <advance width="692"/>
  <unicode hex="0044"/>
  <outline>
    <contour>
      <point x="272" y="27"/>
      <point x="257" y="28"/>
      <point x="236" y="32" type="curve"/>
      <point x="236" y="665" type="line"/>
      <point x="257" y="669"/>
      <point x="276" y="670"/>
      <point x="290" y="670" type="curve" smooth="yes"/>
      <point x="474" y="670"/>
      <point x="513" y="530"/>
      <point x="513" y="353" type="curve" smooth="yes"/>
      <point x="513" y="166"/>
      <point x="453" y="27"/>
      <point x="284" y="27" type="curve" smooth="yes"/>
    </contour>
    <contour>
      <point x="298" y="0" type="line" smooth="yes"/>
      <point x="542" y="0"/>
      <point x="643" y="152"/>
      <point x="643" y="345" type="curve" smooth="yes"/>
      <point x="643" y="556"/>
      <point x="552" y="697"/>
      <point x="282" y="697" type="curve" smooth="yes"/>
      <point x="36" y="697" type="line"/>
      <point x="36" y="675" type="line"/>
      <point x="111" y="670" type="line"/>
      <point x="111" y="27" type="line"/>
      <point x="36" y="22" type="line"/>
      <point x="36" y="0" type="line"/>
    </contour>
  </outline>
</glyph>
<glyph name="H" format="1">
  <advance width="734"/>
  <unicode hex="0048"/>
  <outline>
    <contour>
      <point x="699" y="697" type="line"/>
      <point x="423" y="697" type="line"/>
      <point x="423" y="675" type="line"/>
      <point x="499" y="670" type="line"/>
      <point x="499" y="376" type="line"/>
      <point x="236" y="372" type="line"/>
      <point x="236" y="670" type="line"/>
      <point x="311" y="675" type="line"/>
      <point x="311" y="697" type="line"/>
      <point x="36" y="697" type="line"/>
      <point x="36" y="675" type="line"/>
      <point x="111" y="670" type="line"/>
      <point x="111" y="27" type="line"/>
      <point x="36" y="22" type="line"/>
      <point x="36" y="0" type="line"/>
      <point x="311" y="0" type="line"/>
      <point x="311" y="22" type="line"/>
      <point x="236" y="27" type="line"/>
      <point x="236" y="343" type="line"/>
      <point x="499" y="343" type="line"/>
      <point x="499" y="27" type="line"/>
      <point x="423" y="22" type="line"/>
      <point x="423" y="0" type="line"/>
      <point x="699" y="0" type="line"/>
      <point x="699" y="22" type="line"/>
      <point x="624" y="27" type="line"/>
      <point x="624" y="670" type="line"/>
      <point x="699" y="675" type="line"/>
    </contour>
  </outline>
</glyph>
<glyph name="J" format="1">
  <advance width="401"/>
  <unicode hex="004A"/>
  <outline>
    <contour>
      <point x="295" y="670" type="line"/>
      <point x="370" y="675" type="line"/>
      <point x="370" y="697" type="line"/>
      <point x="75" y="697" type="line"/>
      <point x="75" y="675" type="line"/>
      <point x="170" y="670" type="line"/>
      <point x="170" y="4" type="line" smooth="yes"/>
      <point x="170" y="-120"/>
      <point x="127" y="-123"/>
      <point x="103" y="-123" type="curve" smooth="yes"/>
      <point x="98" y="-123"/>
      <point x="79" y="-121"/>
      <point x="74" y="-114" type="curve" smooth="yes"/>
      <point x="73" y="-112" type="line"/>
      <point x="97" y="-99"/>
      <point x="110" y="-69"/>
      <point x="110" y="-50" type="curve" smooth="yes"/>
      <point x="110" y="-15"/>
      <point x="87" y="17"/>
      <point x="41" y="17" type="curve" smooth="yes"/>
      <point x="-1" y="17"/>
      <point x="-29" y="-17"/>
      <point x="-29" y="-55" type="curve" smooth="yes"/>
      <point x="-29" y="-118"/>
      <point x="30" y="-150"/>
      <point x="95" y="-150" type="curve" smooth="yes"/>
      <point x="160" y="-150"/>
      <point x="295" y="-121"/>
      <point x="295" y="108" type="curve" smooth="yes"/>
    </contour>
  </outline>
</glyph>
<glyph name="K" format="1">
  <advance width="674"/>
  <unicode hex="004B"/>
  <outline>
    <contour>
      <point x="311" y="697" type="line"/>
      <point x="36" y="697" type="line"/>
      <point x="36" y="675" type="line"/>
      <point x="111" y="670" type="line"/>
      <point x="111" y="27" type="line"/>
      <point x="36" y="22" type="line"/>
      <point x="36" y="0" type="line"/>
      <point x="311" y="0" type="line"/>
      <point x="311" y="22" type="line"/>
      <point x="236" y="27" type="line"/>
      <point x="236" y="348" type="line"/>
      <point x="237" y="348" type="line"/>
      <point x="472" y="27" type="line"/>
      <point x="409" y="22" type="line"/>
      <point x="409" y="0" type="line"/>
      <point x="688" y="0" type="line"/>
      <point x="688" y="22" type="line"/>
      <point x="635" y="27" type="line"/>
      <point x="325" y="430" type="line"/>
      <point x="552" y="670" type="line"/>
      <point x="609" y="675" type="line"/>
      <point x="609" y="697" type="line"/>
      <point x="451" y="697" type="line"/>
      <point x="451" y="675" type="line"/>
      <point x="514" y="670" type="line"/>
      <point x="237" y="373" type="line"/>
      <point x="236" y="373" type="line"/>
      <point x="236" y="670" type="line"/>
      <point x="311" y="675" type="line"/>
    </contour>
  </outline>
</glyph>
<glyph name="M" format="1">
  <advance width="876"/>
  <unicode hex="004D"/>
  <outline>
    <contour>
      <point x="841" y="697" type="line"/>
      <point x="641" y="697" type="line"/>
      <point x="449" y="177" type="line"/>
      <point x="448" y="177" type="line"/>
      <point x="245" y="697" type="line"/>
      <point x="36" y="697" type="line"/>
      <point x="36" y="675" type="line"/>
      <point x="111" y="670" type="line"/>
      <point x="111" y="27" type="line"/>
      <point x="36" y="22" type="line"/>
      <point x="36" y="0" type="line"/>
      <point x="213" y="0" type="line"/>
      <point x="213" y="22" type="line"/>
      <point x="139" y="27" type="line"/>
      <point x="132" y="647" type="line"/>
      <point x="133" y="647" type="line"/>
      <point x="391" y="-10" type="line"/>
      <point x="409" y="-10" type="line"/>
      <point x="641" y="624" type="line"/>
      <point x="642" y="624" type="line"/>
      <point x="641" y="27" type="line"/>
      <point x="565" y="22" type="line"/>
      <point x="565" y="0" type="line"/>
      <point x="841" y="0" type="line"/>
      <point x="841" y="22" type="line"/>
      <point x="766" y="27" type="line"/>
      <point x="766" y="670" type="line"/>
      <point x="841" y="675" type="line"/>
    </contour>
  </outline>
</glyph>
<glyph name="P" format="1">
  <advance width="589"/>
  <unicode hex="0050"/>
  <outline>
    <contour>
      <point x="422" y="277"/>
      <point x="561" y="339"/>
      <point x="561" y="499" type="curve" smooth="yes"/>
      <point x="561" y="639"/>
      <point x="439" y="697"/>
      <point x="301" y="697" type="curve" smooth="yes"/>
      <point x="36" y="697" type="line"/>
      <point x="36" y="675" type="line"/>
      <point x="111" y="670" type="line"/>
      <point x="111" y="27" type="line"/>
      <point x="36" y="22" type="line"/>
      <point x="36" y="0" type="line"/>
      <point x="311" y="0" type="line"/>
      <point x="311" y="22" type="line"/>
      <point x="236" y="27" type="line"/>
      <point x="236" y="278" type="line"/>
      <point x="247" y="278"/>
      <point x="258" y="277"/>
      <point x="268" y="277" type="curve" smooth="yes"/>
    </contour>
    <contour>
      <point x="236" y="663" type="line"/>
      <point x="257" y="666"/>
      <point x="277" y="667"/>
      <point x="288" y="667" type="curve" smooth="yes"/>
      <point x="368" y="667"/>
      <point x="431" y="630"/>
      <point x="431" y="500" type="curve" smooth="yes"/>
      <point x="431" y="384"/>
      <point x="388" y="305"/>
      <point x="271" y="305" type="curve" smooth="yes"/>
      <point x="259" y="305"/>
      <point x="247" y="305"/>
      <point x="236" y="306" type="curve"/>
    </contour>
  </outline>
</glyph>
<glyph name="S" format="1">
  <advance width="547"/>
  <unicode hex="0053"/>
  <outline>
    <contour>
      <point x="364" y="687"/>
      <point x="408" y="652"/>
      <point x="416" y="642" type="curve"/>
      <point x="416" y="640" type="line"/>
      <point x="374" y="640"/>
      <point x="341" y="615"/>
      <point x="341" y="569" type="curve" smooth="yes"/>
      <point x="341" y="529"/>
      <point x="370" y="499"/>
      <point x="413" y="499" type="curve" smooth="yes"/>
      <point x="460" y="499"/>
      <point x="486" y="534"/>
      <point x="486" y="573" type="curve" smooth="yes"/>
      <point x="486" y="647"/>
      <point x="416" y="714"/>
      <point x="282" y="714" type="curve" smooth="yes"/>
      <point x="142" y="714"/>
      <point x="63" y="625"/>
      <point x="63" y="518" type="curve" smooth="yes"/>
      <point x="63" y="440"/>
      <point x="106" y="356"/>
      <point x="223" y="301" type="curve"/>
      <point x="397" y="223"/>
      <point x="432" y="184"/>
      <point x="432" y="124" type="curve" smooth="yes"/>
      <point x="432" y="53"/>
      <point x="350" y="10"/>
      <point x="271" y="10" type="curve" smooth="yes"/>
      <point x="176" y="10"/>
      <point x="133" y="42"/>
      <point x="124" y="52" type="curve"/>
      <point x="124" y="54" type="line"/>
      <point x="166" y="54"/>
      <point x="196" y="78"/>
      <point x="196" y="124" type="curve" smooth="yes"/>
      <point x="196" y="164"/>
      <point x="168" y="195"/>
      <point x="125" y="195" type="curve" smooth="yes"/>
      <point x="78" y="195"/>
      <point x="51" y="160"/>
      <point x="51" y="118" type="curve" smooth="yes"/>
      <point x="51" y="52"/>
      <point x="108" y="-17"/>
      <point x="280" y="-17" type="curve" smooth="yes"/>
      <point x="435" y="-17"/>
      <point x="510" y="84"/>
      <point x="510" y="179" type="curve" smooth="yes"/>
      <point x="510" y="290"/>
      <point x="452" y="348"/>
      <point x="293" y="421" type="curve"/>
      <point x="163" y="475"/>
      <point x="138" y="520"/>
      <point x="138" y="572" type="curve" smooth="yes"/>
      <point x="138" y="641"/>
      <point x="187" y="687"/>
      <point x="281" y="687" type="curve" smooth="yes"/>
    </contour>
    <contour>
      <point x="283" y="697" type="move" name="top"/>
    </contour>
    <contour>
      <point x="273" y="0" type="move" name="bottom"/>
    </contour>
  </outline>
</glyph>
<glyph name="U" format="1">
  <advance width="699"/>
  <unicode hex="0055"/>
  <outline>
    <contour>
      <point x="99" y="234" type="line" smooth="yes"/>
      <point x="99" y="113"/>
      <point x="119" y="-17"/>
      <point x="378" y="-17" type="curve" smooth="yes"/>
      <point x="559" y="-17"/>
      <point x="600" y="115"/>
      <point x="600" y="223" type="curve" smooth="yes"/>
      <point x="600" y="670" type="line"/>
      <point x="675" y="675" type="line"/>
      <point x="675" y="697" type="line"/>
      <point x="494" y="697" type="line"/>
      <point x="494" y="675" type="line"/>
      <point x="569" y="670" type="line"/>
      <point x="569" y="233" type="line" smooth="yes"/>
      <point x="569" y="125"/>
      <point x="532" y="17"/>
      <point x="394" y="17" type="curve" smooth="yes"/>
      <point x="233" y="17"/>
      <point x="224" y="136"/>
      <point x="224" y="214" type="curve" smooth="yes"/>
      <point x="224" y="670" type="line"/>
      <point x="299" y="675" type="line"/>
      <point x="299" y="697" type="line"/>
      <point x="24" y="697" type="line"/>
      <point x="24" y="675" type="line"/>
      <point x="99" y="670" type="line"/>
    </contour>
  </outline>
</glyph>
<glyph name="X" format="1">
  <advance width="657"/>
  <unicode hex="0058"/>
  <outline>
    <contour>
      <point x="449" y="27" type="line"/>
      <point x="364" y="22" type="line"/>
      <point x="364" y="0" type="line"/>
      <point x="669" y="0" type="line"/>
      <point x="669" y="22" type="line"/>
      <point x="594" y="27" type="line"/>
      <point x="367" y="392" type="line"/>
      <point x="534" y="670" type="line"/>
      <point x="598" y="675" type="line"/>
      <point x="598" y="697" type="line"/>
      <point x="436" y="697" type="line"/>
      <point x="436" y="675" type="line"/>
      <point x="499" y="670" type="line"/>
      <point x="349" y="421" type="line"/>
      <point x="348" y="421" type="line"/>
      <point x="195" y="670" type="line"/>
      <point x="268" y="675" type="line"/>
      <point x="268" y="697" type="line"/>
      <point x="-5" y="697" type="line"/>
      <point x="-5" y="675" type="line"/>
      <point x="55" y="670" type="line"/>
      <point x="271" y="316" type="line"/>
      <point x="98" y="27" type="line"/>
      <point x="34" y="22" type="line"/>
      <point x="34" y="0" type="line"/>
      <point x="207" y="0" type="line"/>
      <point x="207" y="22" type="line"/>
      <point x="134" y="27" type="line"/>
      <point x="290" y="287" type="line"/>
      <point x="291" y="287" type="line"/>
    </contour>
  </outline>
</glyph>
<glyph name="asciicircum" format="1">
  <advance width="634"/>
  <unicode hex="005E"/>
  <outline>
    <contour>
      <point x="310" y="714" type="line"/>
      <point x="39" y="464" type="line"/>
      <point x="101" y="464" type="line"/>
      <point x="316" y="661" type="line"/>
      <point x="317" y="661" type="line"/>
      <point x="532" y="464" type="line"/>
      <point x="595" y="464" type="line"/>
      <point x="328" y="714" type="line"/>
    </contour>
  </outline>
</glyph>
<glyph name="grave" format="1">
  <advance width="238"/>
  <unicode hex="0060"/>
  <outline>
    <contour>
      <point x="165" y="571" type="line"/>
      <point x="183" y="583" type="line"/>
      <point x="129" y="739" type="line"/>
      <point x="123" y="757"/>
      <point x="106" y="772"/>
      <point x="85" y="772" type="curve" smooth="yes"/>
      <point x="60" y="772"/>
      <point x="42" y="752"/>
      <point x="42" y="727" type="curve" smooth="yes"/>
      <point x="42" y="712"/>
      <point x="47" y="698"/>
      <point x="56" y="688" type="curve" smooth="yes"/>
    </contour>
    <contour>
      <point x="131" y="534" type="move" name="_top"/>
    </contour>
  </outline>
</glyph>
<glyph name="b" format="1">
  <advance width="532"/>
  <unicode hex="0062"/>
  <outline>
    <contour>
      <point x="191" y="693" type="line"/>
      <point x="183" y="707" type="line"/>
      <point x="114" y="689" type="line"/>
      <point x="12" y="678" type="line"/>
      <point x="12" y="658" type="line"/>
      <point x="72" y="658" type="line"/>
      <point x="72" y="-5" type="line"/>
      <point x="92" y="-5" type="line"/>
      <point x="191" y="38" type="line"/>
      <point x="221" y="-3"/>
      <point x="266" y="-15"/>
      <point x="296" y="-15" type="curve" smooth="yes"/>
      <point x="431" y="-15"/>
      <point x="491" y="107"/>
      <point x="491" y="249" type="curve" smooth="yes"/>
      <point x="491" y="472"/>
      <point x="384" y="505"/>
      <point x="329" y="505" type="curve" smooth="yes"/>
      <point x="273" y="505"/>
      <point x="232" y="488"/>
      <point x="193" y="422" type="curve"/>
      <point x="191" y="422" type="line"/>
    </contour>
    <contour>
      <point x="333" y="466"/>
      <point x="366" y="423"/>
      <point x="366" y="254" type="curve" smooth="yes"/>
      <point x="366" y="162"/>
      <point x="363" y="15"/>
      <point x="271" y="15" type="curve" smooth="yes"/>
      <point x="229" y="15"/>
      <point x="191" y="59"/>
      <point x="191" y="105" type="curve" smooth="yes"/>
      <point x="191" y="339" type="line" smooth="yes"/>
      <point x="191" y="402"/>
      <point x="232" y="466"/>
      <point x="281" y="466" type="curve" smooth="yes"/>
    </contour>
  </outline>
</glyph>
<glyph name="c" format="1">
  <advance width="462"/>
  <unicode hex="0063"/>
  <outline>
    <contour>
      <point x="110" y="505"/>
      <point x="40" y="359"/>
      <point x="40" y="242" type="curve" smooth="yes"/>
      <point x="40" y="87"/>
      <point x="103" y="-15"/>
      <point x="264" y="-15" type="curve" smooth="yes"/>
      <point x="325" y="-15"/>
      <point x="389" y="9"/>
      <point x="436" y="94" type="curve"/>
      <point x="417" y="105" type="line"/>
      <point x="370" y="26"/>
      <point x="319" y="19"/>
      <point x="285" y="19" type="curve" smooth="yes"/>
      <point x="220" y="19"/>
      <point x="165" y="71"/>
      <point x="165" y="244" type="curve" smooth="yes"/>
      <point x="165" y="377"/>
      <point x="197" y="480"/>
      <point x="286" y="480" type="curve" smooth="yes"/>
      <point x="338" y="480"/>
      <point x="363" y="447"/>
      <point x="371" y="434" type="curve"/>
      <point x="371" y="432" type="line"/>
      <point x="366" y="432"/>
      <point x="362" y="433"/>
      <point x="358" y="433" type="curve" smooth="yes"/>
      <point x="324" y="433"/>
      <point x="302" y="405"/>
      <point x="302" y="373" type="curve" smooth="yes"/>
      <point x="302" y="339"/>
      <point x="327" y="313"/>
      <point x="363" y="313" type="curve" smooth="yes"/>
      <point x="403" y="313"/>
      <point x="425" y="343"/>
      <point x="425" y="376" type="curve" smooth="yes"/>
      <point x="425" y="445"/>
      <point x="360" y="505"/>
      <point x="268" y="505" type="curve" smooth="yes"/>
    </contour>
  </outline>
</glyph>
<glyph name="d" format="1">
  <advance width="540"/>
  <unicode hex="0064"/>
  <outline>
    <contour>
      <point x="341" y="69" type="line"/>
      <point x="347" y="0" type="line"/>
      <point x="510" y="0" type="line"/>
      <point x="510" y="20" type="line"/>
      <point x="460" y="25" type="line"/>
      <point x="460" y="693" type="line"/>
      <point x="451" y="707" type="line"/>
      <point x="382" y="689" type="line"/>
      <point x="280" y="678" type="line"/>
      <point x="280" y="658" type="line"/>
      <point x="340" y="658" type="line"/>
      <point x="340" y="480" type="line"/>
      <point x="317" y="499"/>
      <point x="275" y="505"/>
      <point x="256" y="505" type="curve" smooth="yes"/>
      <point x="105" y="505"/>
      <point x="40" y="371"/>
      <point x="40" y="233" type="curve" smooth="yes"/>
      <point x="40" y="19"/>
      <point x="161" y="-15"/>
      <point x="207" y="-15" type="curve" smooth="yes"/>
      <point x="260" y="-15"/>
      <point x="300" y="1"/>
      <point x="340" y="69" type="curve"/>
    </contour>
    <contour>
      <point x="340" y="157" type="line" smooth="yes"/>
      <point x="340" y="96"/>
      <point x="300" y="26"/>
      <point x="252" y="26" type="curve" smooth="yes"/>
      <point x="207" y="26"/>
      <point x="165" y="67"/>
      <point x="165" y="238" type="curve" smooth="yes"/>
      <point x="165" y="320"/>
      <point x="170" y="477"/>
      <point x="278" y="477" type="curve" smooth="yes"/>
      <point x="301" y="477"/>
      <point x="322" y="470"/>
      <point x="340" y="456" type="curve"/>
    </contour>
  </outline>
</glyph>
<glyph name="h" format="1">
  <advance width="561"/>
  <unicode hex="0068"/>
  <outline>
    <contour>
      <point x="198" y="693" type="line"/>
      <point x="191" y="707" type="line"/>
      <point x="122" y="689" type="line"/>
      <point x="20" y="678" type="line"/>
      <point x="20" y="658" type="line"/>
      <point x="80" y="658" type="line"/>
      <point x="80" y="25" type="line"/>
      <point x="30" y="20" type="line"/>
      <point x="30" y="0" type="line"/>
      <point x="250" y="0" type="line"/>
      <point x="250" y="20" type="line"/>
      <point x="200" y="25" type="line"/>
      <point x="200" y="316" type="line" smooth="yes"/>
      <point x="200" y="403"/>
      <point x="242" y="461"/>
      <point x="300" y="461" type="curve" smooth="yes"/>
      <point x="317" y="461"/>
      <point x="367" y="458"/>
      <point x="367" y="357" type="curve" smooth="yes"/>
      <point x="367" y="25" type="line"/>
      <point x="317" y="20" type="line"/>
      <point x="317" y="0" type="line"/>
      <point x="537" y="0" type="line"/>
      <point x="537" y="20" type="line"/>
      <point x="487" y="25" type="line"/>
      <point x="487" y="343" type="line" smooth="yes"/>
      <point x="487" y="486"/>
      <point x="400" y="505"/>
      <point x="350" y="505" type="curve" smooth="yes"/>
      <point x="273" y="505"/>
      <point x="227" y="460"/>
      <point x="200" y="420" type="curve"/>
      <point x="198" y="420" type="line"/>
    </contour>
  </outline>
</glyph>
<glyph name="i" format="1">
  <advance width="286"/>
  <unicode hex="0069"/>
  <outline>
    <contour>
      <point x="208" y="486" type="line"/>
      <point x="199" y="500" type="line"/>
      <point x="130" y="482" type="line"/>
      <point x="28" y="471" type="line"/>
      <point x="28" y="451" type="line"/>
      <point x="88" y="451" type="line"/>
      <point x="88" y="25" type="line"/>
      <point x="38" y="20" type="line"/>
      <point x="38" y="0" type="line"/>
      <point x="258" y="0" type="line"/>
      <point x="258" y="20" type="line"/>
      <point x="208" y="25" type="line"/>
    </contour>
    <contour>
      <point x="81" y="637"/>
      <point x="109" y="608"/>
      <point x="146" y="608" type="curve" smooth="yes"/>
      <point x="182" y="608"/>
      <point x="210" y="637"/>
      <point x="210" y="673" type="curve" smooth="yes"/>
      <point x="210" y="709"/>
      <point x="182" y="738"/>
      <point x="146" y="738" type="curve" smooth="yes"/>
      <point x="109" y="738"/>
      <point x="81" y="709"/>
      <point x="81" y="673" type="curve" smooth="yes"/>
    </contour>
  </outline>
</glyph>
<glyph name="j" format="1">
  <advance width="274"/>
  <unicode hex="006A"/>
  <outline>
    <contour>
      <point x="83" y="-120" type="line" smooth="yes"/>
      <point x="83" y="-213"/>
      <point x="54" y="-220"/>
      <point x="36" y="-220" type="curve" smooth="yes"/>
      <point x="23" y="-220"/>
      <point x="15" y="-213"/>
      <point x="12" y="-208" type="curve"/>
      <point x="12" y="-207" type="line"/>
      <point x="29" y="-196"/>
      <point x="37" y="-173"/>
      <point x="37" y="-160" type="curve" smooth="yes"/>
      <point x="37" y="-130"/>
      <point x="19" y="-102"/>
      <point x="-20" y="-102" type="curve" smooth="yes"/>
      <point x="-54" y="-102"/>
      <point x="-78" y="-130"/>
      <point x="-78" y="-163" type="curve" smooth="yes"/>
      <point x="-78" y="-201"/>
      <point x="-55" y="-242"/>
      <point x="23" y="-242" type="curve" smooth="yes"/>
      <point x="64" y="-242"/>
      <point x="203" y="-237"/>
      <point x="203" y="-22" type="curve" smooth="yes"/>
      <point x="203" y="486" type="line"/>
      <point x="194" y="500" type="line"/>
      <point x="125" y="482" type="line"/>
      <point x="22" y="471" type="line"/>
      <point x="22" y="451" type="line"/>
      <point x="83" y="451" type="line"/>
    </contour>
    <contour>
      <point x="76" y="637"/>
      <point x="104" y="608"/>
      <point x="141" y="608" type="curve" smooth="yes"/>
      <point x="177" y="608"/>
      <point x="206" y="637"/>
      <point x="206" y="673" type="curve" smooth="yes"/>
      <point x="206" y="709"/>
      <point x="177" y="738"/>
      <point x="141" y="738" type="curve" smooth="yes"/>
      <point x="104" y="738"/>
      <point x="76" y="709"/>
      <point x="76" y="673" type="curve" smooth="yes"/>
    </contour>
  </outline>
</glyph>
<glyph name="k" format="1">
  <advance width="527"/>
  <unicode hex="006B"/>
  <outline>
    <contour>
      <point x="426" y="465" type="line"/>
      <point x="481" y="470" type="line"/>
      <point x="481" y="490" type="line"/>
      <point x="335" y="490" type="line"/>
      <point x="335" y="470" type="line"/>
      <point x="390" y="465" type="line"/>
      <point x="200" y="267" type="line"/>
      <point x="200" y="693" type="line"/>
      <point x="191" y="707" type="line"/>
      <point x="122" y="689" type="line"/>
      <point x="20" y="678" type="line"/>
      <point x="21" y="658" type="line"/>
      <point x="80" y="659" type="line"/>
      <point x="80" y="25" type="line"/>
      <point x="30" y="20" type="line"/>
      <point x="30" y="0" type="line"/>
      <point x="250" y="0" type="line"/>
      <point x="250" y="20" type="line"/>
      <point x="200" y="25" type="line"/>
      <point x="200" y="255" type="line"/>
      <point x="349" y="25" type="line"/>
      <point x="309" y="20" type="line"/>
      <point x="309" y="0" type="line"/>
      <point x="533" y="0" type="line"/>
      <point x="533" y="20" type="line"/>
      <point x="482" y="25" type="line"/>
      <point x="286" y="316" type="line"/>
    </contour>
  </outline>
</glyph>
<glyph name="m" format="1">
  <advance width="830"/>
  <unicode hex="006D"/>
  <outline>
    <contour>
      <point x="206" y="486" type="line"/>
      <point x="199" y="500" type="line"/>
      <point x="130" y="482" type="line"/>
      <point x="28" y="471" type="line"/>
      <point x="28" y="451" type="line"/>
      <point x="88" y="451" type="line"/>
      <point x="88" y="25" type="line"/>
      <point x="38" y="20" type="line"/>
      <point x="38" y="0" type="line"/>
      <point x="258" y="0" type="line"/>
      <point x="258" y="20" type="line"/>
      <point x="208" y="25" type="line"/>
      <point x="208" y="316" type="line" smooth="yes"/>
      <point x="208" y="403"/>
      <point x="261" y="461"/>
      <point x="298" y="461" type="curve" smooth="yes"/>
      <point x="315" y="461"/>
      <point x="359" y="458"/>
      <point x="359" y="357" type="curve" smooth="yes"/>
      <point x="359" y="25" type="line"/>
      <point x="310" y="20" type="line"/>
      <point x="310" y="0" type="line"/>
      <point x="530" y="0" type="line"/>
      <point x="530" y="20" type="line"/>
      <point x="479" y="25" type="line"/>
      <point x="479" y="326" type="line" smooth="yes"/>
      <point x="479" y="418"/>
      <point x="538" y="461"/>
      <point x="574" y="461" type="curve" smooth="yes"/>
      <point x="591" y="461"/>
      <point x="636" y="458"/>
      <point x="636" y="357" type="curve" smooth="yes"/>
      <point x="636" y="25" type="line"/>
      <point x="586" y="20" type="line"/>
      <point x="586" y="0" type="line"/>
      <point x="807" y="0" type="line"/>
      <point x="807" y="20" type="line"/>
      <point x="756" y="25" type="line"/>
      <point x="756" y="340" type="line" smooth="yes"/>
      <point x="756" y="483"/>
      <point x="673" y="505"/>
      <point x="624" y="505" type="curve" smooth="yes"/>
      <point x="561" y="505"/>
      <point x="512" y="470"/>
      <point x="471" y="414" type="curve"/>
      <point x="470" y="414" type="line"/>
      <point x="447" y="491"/>
      <point x="387" y="505"/>
      <point x="348" y="505" type="curve" smooth="yes"/>
      <point x="281" y="505"/>
      <point x="235" y="460"/>
      <point x="208" y="420" type="curve"/>
      <point x="206" y="420" type="line"/>
    </contour>
  </outline>
</glyph>
<glyph name="n" format="1">
  <advance width="568"/>
  <unicode hex="006E"/>
  <outline>
    <contour>
      <point x="207" y="486" type="line"/>
      <point x="198" y="500" type="line"/>
      <point x="129" y="482" type="line"/>
      <point x="27" y="471" type="line"/>
      <point x="28" y="451" type="line"/>
      <point x="87" y="452" type="line"/>
      <point x="87" y="25" type="line"/>
      <point x="37" y="20" type="line"/>
      <point x="37" y="0" type="line"/>
      <point x="257" y="0" type="line"/>
      <point x="257" y="20" type="line"/>
      <point x="207" y="25" type="line"/>
      <point x="207" y="316" type="line" smooth="yes"/>
      <point x="207" y="403"/>
      <point x="249" y="461"/>
      <point x="307" y="461" type="curve" smooth="yes"/>
      <point x="324" y="461"/>
      <point x="374" y="458"/>
      <point x="374" y="357" type="curve" smooth="yes"/>
      <point x="374" y="25" type="line"/>
      <point x="324" y="20" type="line"/>
      <point x="324" y="0" type="line"/>
      <point x="544" y="0" type="line"/>
      <point x="544" y="20" type="line"/>
      <point x="494" y="25" type="line"/>
      <point x="494" y="343" type="line" smooth="yes"/>
      <point x="494" y="486"/>
      <point x="407" y="505"/>
      <point x="357" y="505" type="curve" smooth="yes"/>
      <point x="280" y="505"/>
      <point x="234" y="460"/>
      <point x="207" y="420" type="curve"/>
      <point x="205" y="420" type="line"/>
    </contour>
    <contour>
      <point x="324" y="490" type="move" name="top"/>
    </contour>
    <contour>
      <point x="284" y="0" type="move" name="bottom"/>
    </contour>
  </outline>
</glyph>
<glyph name="v" format="1">
  <advance width="470"/>
  <unicode hex="0076"/>
  <outline>
    <contour>
      <point x="395" y="465" type="line"/>
      <point x="290" y="157" type="line"/>
      <point x="288" y="157" type="line"/>
      <point x="172" y="465" type="line"/>
      <point x="225" y="470" type="line"/>
      <point x="225" y="490" type="line"/>
      <point x="-6" y="490" type="line"/>
      <point x="-6" y="470" type="line"/>
      <point x="42" y="465" type="line"/>
      <point x="238" y="-5" type="line"/>
      <point x="261" y="-5" type="line"/>
      <point x="424" y="465" type="line"/>
      <point x="475" y="470" type="line"/>
      <point x="475" y="490" type="line"/>
      <point x="341" y="490" type="line"/>
      <point x="341" y="470" type="line"/>
    </contour>
  </outline>
</glyph>
<glyph name="w" format="1">
  <advance width="721"/>
  <unicode hex="0077"/>
  <outline>
    <contour>
      <point x="647" y="465" type="line"/>
      <point x="542" y="156" type="line"/>
      <point x="540" y="156" type="line"/>
      <point x="437" y="465" type="line"/>
      <point x="490" y="470" type="line"/>
      <point x="490" y="490" type="line"/>
      <point x="271" y="490" type="line"/>
      <point x="271" y="470" type="line"/>
      <point x="315" y="465" type="line"/>
      <point x="350" y="373" type="line"/>
      <point x="274" y="160" type="line"/>
      <point x="272" y="160" type="line"/>
      <point x="172" y="465" type="line"/>
      <point x="221" y="470" type="line"/>
      <point x="221" y="490" type="line"/>
      <point x="-6" y="490" type="line"/>
      <point x="-6" y="470" type="line"/>
      <point x="42" y="465" type="line"/>
      <point x="223" y="-5" type="line"/>
      <point x="246" y="-5" type="line"/>
      <point x="364" y="337" type="line"/>
      <point x="492" y="-5" type="line"/>
      <point x="514" y="-5" type="line"/>
      <point x="675" y="465" type="line"/>
      <point x="726" y="470" type="line"/>
      <point x="726" y="490" type="line"/>
      <point x="591" y="490" type="line"/>
      <point x="591" y="470" type="line"/>
    </contour>
  </outline>
</glyph>
<glyph name="x" format="1">
  <advance width="505"/>
  <unicode hex="0078"/>
  <outline>
    <contour>
      <point x="458" y="25" type="line"/>
      <point x="297" y="281" type="line"/>
      <point x="415" y="465" type="line"/>
      <point x="466" y="470" type="line"/>
      <point x="466" y="490" type="line"/>
      <point x="329" y="490" type="line"/>
      <point x="329" y="470" type="line"/>
      <point x="383" y="465" type="line"/>
      <point x="282" y="305" type="line"/>
      <point x="182" y="465" type="line"/>
      <point x="234" y="470" type="line"/>
      <point x="234" y="490" type="line"/>
      <point x="1" y="490" type="line"/>
      <point x="1" y="470" type="line"/>
      <point x="49" y="465" type="line"/>
      <point x="206" y="215" type="line"/>
      <point x="82" y="25" type="line"/>
      <point x="30" y="20" type="line"/>
      <point x="30" y="0" type="line"/>
      <point x="167" y="0" type="line"/>
      <point x="167" y="20" type="line"/>
      <point x="113" y="25" type="line"/>
      <point x="222" y="189" type="line"/>
      <point x="325" y="25" type="line"/>
      <point x="271" y="20" type="line"/>
      <point x="271" y="0" type="line"/>
      <point x="506" y="0" type="line"/>
      <point x="506" y="20" type="line"/>
    </contour>
  </outline>
</glyph>
<glyph name="z" format="1">
  <advance width="469"/>
  <unicode hex="007A"/>
  <outline>
    <contour>
      <point x="403" y="163" type="line"/>
      <point x="403" y="103"/>
      <point x="389" y="18"/>
      <point x="300" y="21" type="curve" smooth="yes"/>
      <point x="161" y="25" type="line"/>
      <point x="436" y="476" type="line"/>
      <point x="426" y="490" type="line"/>
      <point x="52" y="490" type="line"/>
      <point x="52" y="327" type="line"/>
      <point x="72" y="327" type="line"/>
      <point x="72" y="387"/>
      <point x="89" y="472"/>
      <point x="174" y="469" type="curve" smooth="yes"/>
      <point x="292" y="465" type="line"/>
      <point x="28" y="14" type="line"/>
      <point x="37" y="0" type="line"/>
      <point x="423" y="0" type="line"/>
      <point x="423" y="163" type="line"/>
    </contour>
    <contour>
      <point x="250" y="490" type="move" name="top"/>
    </contour>
    <contour>
      <point x="235" y="0" type="move" name="bottom"/>
    </contour>
  </outline>
</glyph>
<glyph name="braceleft" format="1">
  <advance width="334"/>
  <unicode hex="007B"/>
  <outline>
    <contour>
      <point x="68" y="237" type="line"/>
      <point x="150" y="251"/>
      <point x="214" y="293"/>
      <point x="214" y="375" type="curve" smooth="yes"/>
      <point x="214" y="474"/>
      <point x="205" y="516"/>
      <point x="205" y="547" type="curve" smooth="yes"/>
      <point x="205" y="636"/>
      <point x="234" y="688"/>
      <point x="324" y="688" type="curve" smooth="yes"/>
      <point x="330" y="688" type="line"/>
      <point x="330" y="714" type="line"/>
      <point x="302" y="714" type="line" smooth="yes"/>
      <point x="165" y="714"/>
      <point x="108" y="641"/>
      <point x="108" y="507" type="curve" smooth="yes"/>
      <point x="108" y="461"/>
      <point x="113" y="411"/>
      <point x="113" y="366" type="curve" smooth="yes"/>
      <point x="113" y="309"/>
      <point x="98" y="251"/>
      <point x="19" y="251" type="curve" smooth="yes"/>
      <point x="-4" y="251" type="line"/>
      <point x="-4" y="222" type="line"/>
      <point x="19" y="222" type="line" smooth="yes"/>
      <point x="98" y="222"/>
      <point x="113" y="164"/>
      <point x="113" y="106" type="curve" smooth="yes"/>
      <point x="113" y="62"/>
      <point x="108" y="12"/>
      <point x="108" y="-34" type="curve" smooth="yes"/>
      <point x="108" y="-168"/>
      <point x="165" y="-242"/>
      <point x="302" y="-242" type="curve" smooth="yes"/>
      <point x="330" y="-242" type="line"/>
      <point x="330" y="-215" type="line"/>
      <point x="324" y="-215" type="line" smooth="yes"/>
      <point x="234" y="-215"/>
      <point x="205" y="-163"/>
      <point x="205" y="-75" type="curve" smooth="yes"/>
      <point x="205" y="-44"/>
      <point x="214" y="-1"/>
      <point x="214" y="98" type="curve" smooth="yes"/>
      <point x="214" y="180"/>
      <point x="150" y="221"/>
      <point x="68" y="235" type="curve"/>
    </contour>
  </outline>
</glyph>
<glyph name="bar" format="1">
  <advance width="208"/>
  <unicode hex="007C"/>
  <outline>
    <contour>
      <point x="134" y="-242" type="line"/>
      <point x="134" y="714" type="line"/>
      <point x="74" y="714" type="line"/>
      <point x="74" y="-242" type="line"/>
    </contour>
  </outline>
</glyph>
<glyph name="braceright" format="1">
  <advance width="334"/>
  <unicode hex="007D"/>
  <outline>
    <contour>
      <point x="267" y="235" type="line"/>
      <point x="184" y="221"/>
      <point x="120" y="179"/>
      <point x="120" y="98" type="curve" smooth="yes"/>
      <point x="120" y="-2"/>
      <point x="129" y="-44"/>
      <point x="129" y="-75" type="curve" smooth="yes"/>
      <point x="129" y="-164"/>
      <point x="101" y="-215"/>
      <point x="10" y="-215" type="curve" smooth="yes"/>
      <point x="4" y="-215" type="line"/>
      <point x="4" y="-242" type="line"/>
      <point x="32" y="-242" type="line" smooth="yes"/>
      <point x="169" y="-242"/>
      <point x="227" y="-169"/>
      <point x="227" y="-35" type="curve" smooth="yes"/>
      <point x="227" y="11"/>
      <point x="221" y="62"/>
      <point x="221" y="106" type="curve" smooth="yes"/>
      <point x="221" y="163"/>
      <point x="237" y="221"/>
      <point x="316" y="221" type="curve" smooth="yes"/>
      <point x="339" y="221" type="line"/>
      <point x="339" y="250" type="line"/>
      <point x="316" y="250" type="line" smooth="yes"/>
      <point x="237" y="250"/>
      <point x="221" y="309"/>
      <point x="221" y="366" type="curve" smooth="yes"/>
      <point x="221" y="410"/>
      <point x="227" y="460"/>
      <point x="227" y="506" type="curve" smooth="yes"/>
      <point x="227" y="641"/>
      <point x="169" y="714"/>
      <point x="32" y="714" type="curve" smooth="yes"/>
      <point x="4" y="714" type="line"/>
      <point x="4" y="688" type="line"/>
      <point x="10" y="688" type="line" smooth="yes"/>
      <point x="101" y="688"/>
      <point x="129" y="635"/>
      <point x="129" y="547" type="curve" smooth="yes"/>
      <point x="129" y="516"/>
      <point x="120" y="474"/>
      <point x="120" y="374" type="curve" smooth="yes"/>
      <point x="120" y="292"/>
      <point x="184" y="251"/>
      <point x="267" y="237" type="curve"/>
    </contour>
  </outline>
</glyph>
<glyph name="cent" format="1">
  <advance width="479"/>
  <unicode hex="00A2"/>
  <outline>
    <contour>
      <point x="288" y="-95" type="line"/>
      <point x="288" y="-14" type="line"/>
      <point x="344" y="-10"/>
      <point x="402" y="16"/>
      <point x="445" y="94" type="curve"/>
      <point x="426" y="105" type="line"/>
      <point x="379" y="26"/>
      <point x="328" y="19"/>
      <point x="294" y="19" type="curve" smooth="yes"/>
      <point x="288" y="19" type="line"/>
      <point x="288" y="480" type="line"/>
      <point x="290" y="480"/>
      <point x="292" y="480"/>
      <point x="295" y="480" type="curve" smooth="yes"/>
      <point x="347" y="480"/>
      <point x="372" y="447"/>
      <point x="380" y="434" type="curve"/>
      <point x="380" y="432" type="line"/>
      <point x="375" y="432"/>
      <point x="372" y="433"/>
      <point x="368" y="433" type="curve" smooth="yes"/>
      <point x="333" y="433"/>
      <point x="311" y="405"/>
      <point x="311" y="373" type="curve" smooth="yes"/>
      <point x="311" y="339"/>
      <point x="336" y="313"/>
      <point x="372" y="313" type="curve" smooth="yes"/>
      <point x="412" y="313"/>
      <point x="434" y="343"/>
      <point x="434" y="376" type="curve" smooth="yes"/>
      <point x="434" y="442"/>
      <point x="374" y="500"/>
      <point x="288" y="504" type="curve"/>
      <point x="288" y="567" type="line"/>
      <point x="248" y="567" type="line"/>
      <point x="248" y="503" type="line"/>
      <point x="110" y="486"/>
      <point x="49" y="352"/>
      <point x="49" y="242" type="curve" smooth="yes"/>
      <point x="49" y="95"/>
      <point x="105" y="-3"/>
      <point x="248" y="-14" type="curve"/>
      <point x="248" y="-95" type="line"/>
    </contour>
    <contour>
      <point x="174" y="350"/>
      <point x="194" y="438"/>
      <point x="248" y="468" type="curve"/>
      <point x="248" y="29" type="line"/>
      <point x="205" y="52"/>
      <point x="174" y="114"/>
      <point x="174" y="244" type="curve" smooth="yes"/>
    </contour>
  </outline>
</glyph>
<glyph name="sterling" format="1">
  <advance width="545"/>
  <unicode hex="00A3"/>
  <outline>
    <contour>
      <point x="395" y="351" type="line"/>
      <point x="395" y="371" type="line"/>
      <point x="227" y="371" type="line"/>
      <point x="227" y="467" type="line" smooth="yes"/>
      <point x="227" y="632"/>
      <point x="272" y="686"/>
      <point x="330" y="686" type="curve" smooth="yes"/>
      <point x="358" y="686"/>
      <point x="390" y="679"/>
      <point x="409" y="658" type="curve"/>
      <point x="409" y="656" type="line"/>
      <point x="375" y="648"/>
      <point x="363" y="625"/>
      <point x="363" y="599" type="curve" smooth="yes"/>
      <point x="363" y="565"/>
      <point x="384" y="547"/>
      <point x="420" y="547" type="curve" smooth="yes"/>
      <point x="456" y="547"/>
      <point x="475" y="575"/>
      <point x="475" y="605" type="curve" smooth="yes"/>
      <point x="475" y="660"/>
      <point x="422" y="707"/>
      <point x="321" y="707" type="curve" smooth="yes"/>
      <point x="187" y="707"/>
      <point x="106" y="619"/>
      <point x="106" y="425" type="curve" smooth="yes"/>
      <point x="106" y="371" type="line"/>
      <point x="15" y="371" type="line"/>
      <point x="15" y="351" type="line"/>
      <point x="106" y="345" type="line"/>
      <point x="106" y="75" type="line"/>
      <point x="83" y="65"/>
      <point x="52" y="42"/>
      <point x="25" y="3" type="curve"/>
      <point x="48" y="-15" type="line"/>
      <point x="65" y="9"/>
      <point x="99" y="41"/>
      <point x="135" y="41" type="curve" smooth="yes"/>
      <point x="167" y="41"/>
      <point x="218" y="28"/>
      <point x="273" y="9" type="curve" smooth="yes"/>
      <point x="324" y="-9"/>
      <point x="380" y="-15"/>
      <point x="401" y="-15" type="curve" smooth="yes"/>
      <point x="491" y="-15"/>
      <point x="529" y="54"/>
      <point x="529" y="104" type="curve" smooth="yes"/>
      <point x="529" y="144"/>
      <point x="505" y="181"/>
      <point x="467" y="181" type="curve" smooth="yes"/>
      <point x="439" y="181"/>
      <point x="420" y="161"/>
      <point x="420" y="133" type="curve" smooth="yes"/>
      <point x="420" y="106"/>
      <point x="437" y="87"/>
      <point x="463" y="87" type="curve" smooth="yes"/>
      <point x="482" y="87"/>
      <point x="497" y="97"/>
      <point x="501" y="110" type="curve"/>
      <point x="502" y="111" type="line"/>
      <point x="504" y="106"/>
      <point x="505" y="103"/>
      <point x="505" y="95" type="curve" smooth="yes"/>
      <point x="505" y="75"/>
      <point x="492" y="52"/>
      <point x="455" y="52" type="curve" smooth="yes"/>
      <point x="382" y="52"/>
      <point x="288" y="96"/>
      <point x="227" y="104" type="curve"/>
      <point x="227" y="345" type="line"/>
    </contour>
  </outline>
</glyph>
<glyph name="currency" format="1">
  <advance width="569"/>
  <unicode hex="00A4"/>
  <outline>
    <contour>
      <point x="78" y="292"/>
      <point x="95" y="245"/>
      <point x="124" y="209" type="curve"/>
      <point x="49" y="135" type="line"/>
      <point x="76" y="107" type="line"/>
      <point x="151" y="182" type="line"/>
      <point x="186" y="152"/>
      <point x="232" y="135"/>
      <point x="285" y="135" type="curve" smooth="yes"/>
      <point x="337" y="135"/>
      <point x="383" y="152"/>
      <point x="418" y="182" type="curve"/>
      <point x="493" y="107" type="line"/>
      <point x="521" y="135" type="line"/>
      <point x="445" y="209" type="line"/>
      <point x="475" y="245"/>
      <point x="492" y="292"/>
      <point x="492" y="342" type="curve" smooth="yes"/>
      <point x="492" y="393"/>
      <point x="474" y="439"/>
      <point x="444" y="475" type="curve"/>
      <point x="521" y="551" type="line"/>
      <point x="493" y="578" type="line"/>
      <point x="417" y="502" type="line"/>
      <point x="382" y="531"/>
      <point x="336" y="549"/>
      <point x="285" y="549" type="curve" smooth="yes"/>
      <point x="233" y="549"/>
      <point x="187" y="531"/>
      <point x="152" y="502" type="curve"/>
      <point x="76" y="578" type="line"/>
      <point x="49" y="551" type="line"/>
      <point x="125" y="475" type="line"/>
      <point x="95" y="439"/>
      <point x="78" y="393"/>
      <point x="78" y="342" type="curve" smooth="yes"/>
    </contour>
    <contour>
      <point x="126" y="435"/>
      <point x="188" y="510"/>
      <point x="285" y="510" type="curve" smooth="yes"/>
      <point x="381" y="510"/>
      <point x="443" y="435"/>
      <point x="443" y="342" type="curve" smooth="yes"/>
      <point x="443" y="249"/>
      <point x="381" y="174"/>
      <point x="285" y="174" type="curve" smooth="yes"/>
      <point x="188" y="174"/>
      <point x="126" y="249"/>
      <point x="126" y="342" type="curve" smooth="yes"/>
    </contour>
  </outline>
</glyph>
<glyph name="brokenbar" format="1">
  <advance width="224"/>
  <unicode hex="00A6"/>
  <outline>
    <contour>
      <point x="142" y="364" type="line"/>
      <point x="142" y="714" type="line"/>
      <point x="82" y="714" type="line"/>
      <point x="82" y="364" type="line"/>
    </contour>
    <contour>
      <point x="142" y="-242" type="line"/>
      <point x="142" y="108" type="line"/>
      <point x="82" y="108" type="line"/>
      <point x="82" y="-242" type="line"/>
    </contour>
  </outline>
</glyph>
<glyph name="ordfeminine" format="1">
  <advance width="400"/>
  <unicode hex="00AA"/>
  <outline>
    <contour>
      <point x="324" y="365" type="line"/>
      <point x="324" y="556" type="line" smooth="yes"/>
      <point x="324" y="653"/>
      <point x="309" y="714"/>
      <point x="188" y="714" type="curve" smooth="yes"/>
      <point x="118" y="714"/>
      <point x="60" y="674"/>
      <point x="60" y="616" type="curve" smooth="yes"/>
      <point x="60" y="592"/>
      <point x="76" y="568"/>
      <point x="104" y="568" type="curve" smooth="yes"/>
      <point x="132" y="568"/>
      <point x="149" y="587"/>
      <point x="149" y="612" type="curve" smooth="yes"/>
      <point x="149" y="635"/>
      <point x="133" y="651"/>
      <point x="112" y="651" type="curve" smooth="yes"/>
      <point x="108" y="651"/>
      <point x="105" y="650"/>
      <point x="102" y="650" type="curve"/>
      <point x="102" y="651" type="line"/>
      <point x="110" y="667"/>
      <point x="128" y="688"/>
      <point x="173" y="688" type="curve" smooth="yes"/>
      <point x="231" y="688"/>
      <point x="233" y="646"/>
      <point x="233" y="584" type="curve" smooth="yes"/>
      <point x="233" y="538" type="line"/>
      <point x="222" y="539"/>
      <point x="211" y="540"/>
      <point x="200" y="540" type="curve" smooth="yes"/>
      <point x="88" y="540"/>
      <point x="42" y="480"/>
      <point x="42" y="423" type="curve" smooth="yes"/>
      <point x="42" y="380"/>
      <point x="69" y="336"/>
      <point x="131" y="336" type="curve" smooth="yes"/>
      <point x="180" y="336"/>
      <point x="211" y="358"/>
      <point x="234" y="404" type="curve"/>
      <point x="235" y="404" type="line"/>
      <point x="244" y="346" type="line"/>
      <point x="360" y="346" type="line"/>
      <point x="360" y="361" type="line"/>
    </contour>
    <contour>
      <point x="128" y="455"/>
      <point x="133" y="516"/>
      <point x="208" y="516" type="curve" smooth="yes"/>
      <point x="216" y="516"/>
      <point x="224" y="515"/>
      <point x="233" y="514" type="curve"/>
      <point x="233" y="481" type="line" smooth="yes"/>
      <point x="233" y="421"/>
      <point x="200" y="379"/>
      <point x="170" y="379" type="curve" smooth="yes"/>
      <point x="142" y="379"/>
      <point x="128" y="395"/>
      <point x="128" y="431" type="curve" smooth="yes"/>
    </contour>
  </outline>
</glyph>
<glyph name="registered" format="1">
  <advance width="496"/>
  <unicode hex="00AE"/>
  <outline>
    <contour>
      <point x="34" y="369"/>
      <point x="125" y="272"/>
      <point x="248" y="272" type="curve" smooth="yes"/>
      <point x="372" y="272"/>
      <point x="463" y="369"/>
      <point x="463" y="487" type="curve" smooth="yes"/>
      <point x="463" y="605"/>
      <point x="372" y="702"/>
      <point x="248" y="702" type="curve" smooth="yes"/>
      <point x="125" y="702"/>
      <point x="34" y="605"/>
      <point x="34" y="487" type="curve" smooth="yes"/>
    </contour>
    <contour>
      <point x="68" y="589"/>
      <point x="132" y="677"/>
      <point x="248" y="677" type="curve" smooth="yes"/>
      <point x="365" y="677"/>
      <point x="429" y="589"/>
      <point x="429" y="487" type="curve" smooth="yes"/>
      <point x="429" y="385"/>
      <point x="365" y="296"/>
      <point x="248" y="296" type="curve" smooth="yes"/>
      <point x="132" y="296"/>
      <point x="68" y="385"/>
      <point x="68" y="487" type="curve" smooth="yes"/>
    </contour>
    <contour>
      <point x="264" y="494" type="line"/>
      <point x="309" y="500"/>
      <point x="344" y="518"/>
      <point x="344" y="563" type="curve" smooth="yes"/>
      <point x="344" y="611"/>
      <point x="297" y="629"/>
      <point x="244" y="629" type="curve" smooth="yes"/>
      <point x="143" y="629" type="line"/>
      <point x="143" y="614" type="line"/>
      <point x="165" y="612" type="line"/>
      <point x="165" y="381" type="line"/>
      <point x="143" y="379" type="line"/>
      <point x="143" y="365" type="line"/>
      <point x="245" y="365" type="line"/>
      <point x="245" y="379" type="line"/>
      <point x="221" y="381" type="line"/>
      <point x="221" y="489" type="line"/>
      <point x="233" y="489" type="line" smooth="yes"/>
      <point x="251" y="489"/>
      <point x="266" y="458"/>
      <point x="279" y="426" type="curve" smooth="yes"/>
      <point x="301" y="371"/>
      <point x="315" y="365"/>
      <point x="346" y="365" type="curve" smooth="yes"/>
      <point x="377" y="365" type="line"/>
      <point x="377" y="379" type="line"/>
      <point x="367" y="379"/>
      <point x="362" y="383"/>
      <point x="354" y="399" type="curve" smooth="yes"/>
      <point x="341" y="422"/>
      <point x="338" y="431"/>
      <point x="327" y="454" type="curve" smooth="yes"/>
      <point x="317" y="474"/>
      <point x="292" y="490"/>
      <point x="264" y="493" type="curve"/>
    </contour>
    <contour>
      <point x="221" y="612" type="line"/>
      <point x="229" y="614"/>
      <point x="234" y="614"/>
      <point x="239" y="614" type="curve" smooth="yes"/>
      <point x="266" y="614"/>
      <point x="289" y="604"/>
      <point x="289" y="563" type="curve" smooth="yes"/>
      <point x="289" y="526"/>
      <point x="274" y="502"/>
      <point x="229" y="502" type="curve" smooth="yes"/>
      <point x="221" y="502" type="line"/>
    </contour>
  </outline>
</glyph>
<glyph name="plusminus" format="1">
  <advance width="560"/>
  <unicode hex="00B1"/>
  <outline>
    <contour>
      <point x="57" y="343" type="line"/>
      <point x="57" y="289" type="line"/>
      <point x="253" y="289" type="line"/>
      <point x="253" y="129" type="line"/>
      <point x="307" y="129" type="line"/>
      <point x="307" y="289" type="line"/>
      <point x="502" y="289" type="line"/>
      <point x="502" y="343" type="line"/>
      <point x="307" y="343" type="line"/>
      <point x="307" y="503" type="line"/>
      <point x="253" y="503" type="line"/>
      <point x="253" y="343" type="line"/>
    </contour>
    <contour>
      <point x="57" y="54" type="line"/>
      <point x="57" y="0" type="line"/>
      <point x="502" y="0" type="line"/>
      <point x="502" y="54" type="line"/>
    </contour>
  </outline>
</glyph>
<glyph name="acute" format="1">
  <advance width="238"/>
  <unicode hex="00B4"/>
  <outline>
    <contour>
      <point x="186" y="682" type="line" smooth="yes"/>
      <point x="195" y="691"/>
      <point x="201" y="706"/>
      <point x="201" y="721" type="curve" smooth="yes"/>
      <point x="201" y="746"/>
      <point x="182" y="766"/>
      <point x="157" y="766" type="curve" smooth="yes"/>
      <point x="136" y="766"/>
      <point x="119" y="751"/>
      <point x="113" y="732" type="curve"/>
      <point x="59" y="577" type="line"/>
      <point x="77" y="564" type="line"/>
    </contour>
    <contour>
      <point x="121" y="490" type="move" name="_top"/>
    </contour>
  </outline>
</glyph>
<glyph name="paragraph" format="1">
  <advance width="554"/>
  <unicode hex="00B6"/>
  <outline>
    <contour>
      <point x="351" y="697" type="line"/>
      <point x="257" y="697" type="line" smooth="yes"/>
      <point x="125" y="697"/>
      <point x="17" y="631"/>
      <point x="17" y="491" type="curve" smooth="yes"/>
      <point x="17" y="331"/>
      <point x="125" y="278"/>
      <point x="290" y="278" type="curve" smooth="yes"/>
      <point x="302" y="278" type="line"/>
      <point x="302" y="27" type="line"/>
      <point x="227" y="22" type="line"/>
      <point x="227" y="0" type="line"/>
      <point x="532" y="0" type="line"/>
      <point x="532" y="22" type="line"/>
      <point x="457" y="27" type="line"/>
      <point x="457" y="670" type="line"/>
      <point x="532" y="675" type="line"/>
      <point x="532" y="697" type="line"/>
      <point x="408" y="697" type="line"/>
      <point x="408" y="27" type="line"/>
      <point x="351" y="27" type="line"/>
    </contour>
    <contour>
      <point x="287" y="305" type="line" smooth="yes"/>
      <point x="191" y="305"/>
      <point x="146" y="351"/>
      <point x="146" y="495" type="curve" smooth="yes"/>
      <point x="146" y="625"/>
      <point x="206" y="667"/>
      <point x="270" y="667" type="curve" smooth="yes"/>
      <point x="277" y="667"/>
      <point x="289" y="667"/>
      <point x="302" y="665" type="curve"/>
      <point x="302" y="305" type="line"/>
    </contour>
  </outline>
</glyph>
<glyph name="periodcentered" format="1">
  <advance width="236"/>
  <unicode hex="00B7"/>
  <outline>
    <contour>
      <point x="51" y="302"/>
      <point x="79" y="276"/>
      <point x="118" y="276" type="curve" smooth="yes"/>
      <point x="159" y="276"/>
      <point x="186" y="302"/>
      <point x="186" y="342" type="curve" smooth="yes"/>
      <point x="186" y="383"/>
      <point x="159" y="410"/>
      <point x="118" y="410" type="curve" smooth="yes"/>
      <point x="79" y="410"/>
      <point x="51" y="383"/>
      <point x="51" y="342" type="curve" smooth="yes"/>
    </contour>
  </outline>
</glyph>
<glyph name="cedilla" format="1">
  <advance width="275"/>
  <unicode hex="00B8"/>
  <outline>
    <contour>
      <point x="146" y="-57"/>
      <point x="117" y="-64"/>
      <point x="98" y="-76" type="curve"/>
      <point x="125" y="8" type="line"/>
      <point x="92" y="8" type="line"/>
      <point x="63" y="-95" type="line"/>
      <point x="77" y="-111" type="line"/>
      <point x="90" y="-102"/>
      <point x="107" y="-97"/>
      <point x="123" y="-97" type="curve" smooth="yes"/>
      <point x="140" y="-97"/>
      <point x="154" y="-110"/>
      <point x="154" y="-131" type="curve" smooth="yes"/>
      <point x="154" y="-170"/>
      <point x="107" y="-213"/>
      <point x="39" y="-225" type="curve"/>
      <point x="45" y="-251" type="line"/>
      <point x="113" y="-241"/>
      <point x="236" y="-204"/>
      <point x="236" y="-123" type="curve" smooth="yes"/>
      <point x="236" y="-82"/>
      <point x="210" y="-57"/>
      <point x="169" y="-57" type="curve" smooth="yes"/>
    </contour>
  </outline>
</glyph>
<glyph name="uni00B9" format="1">
  <advance width="279"/>
  <unicode hex="00B9"/>
  <outline>
    <contour>
      <point x="191" y="707" type="line"/>
      <point x="182" y="721" type="line"/>
      <point x="138" y="703" type="line"/>
      <point x="41" y="692" type="line"/>
      <point x="41" y="672" type="line"/>
      <point x="101" y="672" type="line"/>
      <point x="101" y="372" type="line"/>
      <point x="50" y="367" type="line"/>
      <point x="50" y="347" type="line"/>
      <point x="241" y="347" type="line"/>
      <point x="241" y="367" type="line"/>
      <point x="191" y="372" type="line"/>
    </contour>
  </outline>
</glyph>
<glyph name="guillemotright" format="1">
  <advance width="440"/>
  <unicode hex="00BB"/>
  <outline>
    <contour>
      <point x="400" y="252" type="line"/>
      <point x="226" y="410" type="line"/>
      <point x="208" y="392" type="line"/>
      <point x="317" y="243" type="line"/>
      <point x="317" y="243" type="line"/>
      <point x="208" y="94" type="line"/>
      <point x="226" y="76" type="line"/>
      <point x="400" y="234" type="line"/>
    </contour>
    <contour>
      <point x="234" y="252" type="line"/>
      <point x="60" y="424" type="line"/>
      <point x="42" y="406" type="line"/>
      <point x="151" y="243" type="line"/>
      <point x="151" y="243" type="line"/>
      <point x="42" y="80" type="line"/>
      <point x="60" y="62" type="line"/>
      <point x="234" y="234" type="line"/>
    </contour>
  </outline>
</glyph>
<glyph name="threequarters" format="1">
  <advance width="622"/>
  <unicode hex="00BE"/>
  <outline>
    <contour>
      <point x="157" y="539" type="line"/>
      <point x="223" y="551"/>
      <point x="256" y="584"/>
      <point x="256" y="627" type="curve" smooth="yes"/>
      <point x="256" y="686"/>
      <point x="209" y="714"/>
      <point x="139" y="714" type="curve" smooth="yes"/>
      <point x="63" y="714"/>
      <point x="28" y="665"/>
      <point x="28" y="628" type="curve" smooth="yes"/>
      <point x="28" y="599"/>
      <point x="44" y="581"/>
      <point x="70" y="581" type="curve" smooth="yes"/>
      <point x="95" y="581"/>
      <point x="110" y="597"/>
      <point x="110" y="620" type="curve" smooth="yes"/>
      <point x="110" y="646"/>
      <point x="93" y="664"/>
      <point x="62" y="660" type="curve"/>
      <point x="62" y="661" type="line" smooth="yes"/>
      <point x="66" y="676"/>
      <point x="89" y="696"/>
      <point x="125" y="696" type="curve" smooth="yes"/>
      <point x="157" y="696"/>
      <point x="180" y="677"/>
      <point x="180" y="626" type="curve" smooth="yes"/>
      <point x="180" y="582"/>
      <point x="170" y="545"/>
      <point x="113" y="545" type="curve" smooth="yes"/>
      <point x="99" y="545" type="line"/>
      <point x="99" y="530" type="line"/>
      <point x="113" y="530" type="line" smooth="yes"/>
      <point x="171" y="530"/>
      <point x="190" y="497"/>
      <point x="190" y="435" type="curve" smooth="yes"/>
      <point x="190" y="384"/>
      <point x="163" y="358"/>
      <point x="119" y="358" type="curve" smooth="yes"/>
      <point x="87" y="358"/>
      <point x="69" y="369"/>
      <point x="60" y="383" type="curve"/>
      <point x="60" y="385" type="line"/>
      <point x="93" y="381"/>
      <point x="110" y="399"/>
      <point x="110" y="427" type="curve" smooth="yes"/>
      <point x="110" y="450"/>
      <point x="94" y="469"/>
      <point x="68" y="469" type="curve" smooth="yes"/>
      <point x="40" y="469"/>
      <point x="25" y="449"/>
      <point x="25" y="417" type="curve" smooth="yes"/>
      <point x="25" y="375"/>
      <point x="65" y="340"/>
      <point x="137" y="340" type="curve" smooth="yes"/>
      <point x="222" y="340"/>
      <point x="273" y="373"/>
      <point x="273" y="441" type="curve" smooth="yes"/>
      <point x="273" y="510"/>
      <point x="215" y="534"/>
      <point x="157" y="538" type="curve"/>
    </contour>
    <contour>
      <point x="156" y="0" type="line"/>
      <point x="537" y="714" type="line"/>
      <point x="506" y="714" type="line"/>
      <point x="125" y="0" type="line"/>
    </contour>
    <contour>
      <point x="324" y="74" type="line"/>
      <point x="463" y="74" type="line"/>
      <point x="463" y="25" type="line"/>
      <point x="413" y="20" type="line"/>
      <point x="413" y="0" type="line"/>
      <point x="604" y="0" type="line"/>
      <point x="604" y="20" type="line"/>
      <point x="554" y="25" type="line"/>
      <point x="554" y="74" type="line"/>
      <point x="604" y="74" type="line"/>
      <point x="604" y="100" type="line"/>
      <point x="554" y="100" type="line"/>
      <point x="554" y="368" type="line"/>
      <point x="511" y="368" type="line"/>
      <point x="324" y="98" type="line"/>
    </contour>
    <contour>
      <point x="463" y="257" type="line"/>
      <point x="463" y="98" type="line"/>
      <point x="349" y="97" type="line"/>
      <point x="349" y="98" type="line"/>
      <point x="462" y="257" type="line"/>
    </contour>
  </outline>
</glyph>
<glyph name="Aacute" format="1">
  <advance width="604"/>
  <unicode hex="00C1"/>
  <outline>
    <contour>
      <point x="417" y="27" type="line"/>
      <point x="351" y="22" type="line"/>
      <point x="351" y="0" type="line"/>
      <point x="612" y="0" type="line"/>
      <point x="612" y="22" type="line"/>
      <point x="548" y="27" type="line"/>
      <point x="309" y="717" type="line"/>
      <point x="287" y="717" type="line"/>
      <point x="56" y="27" type="line"/>
      <point x="-3" y="22" type="line"/>
      <point x="-3" y="0" type="line"/>
      <point x="150" y="0" type="line"/>
      <point x="150" y="22" type="line"/>
      <point x="84" y="27" type="line"/>
      <point x="141" y="202" type="line"/>
      <point x="359" y="202" type="line"/>
    </contour>
    <contour>
      <point x="249" y="535" type="line"/>
      <point x="251" y="535" type="line"/>
      <point x="349" y="235" type="line"/>
      <point x="149" y="231" type="line"/>
    </contour>
    <contour>
      <point x="397" y="789" type="line" smooth="yes"/>
      <point x="419" y="793"/>
      <point x="441" y="813"/>
      <point x="441" y="836" type="curve" smooth="yes"/>
      <point x="441" y="865"/>
      <point x="418" y="878"/>
      <point x="399" y="878" type="curve" smooth="yes"/>
      <point x="386" y="878"/>
      <point x="370" y="868"/>
      <point x="361" y="861" type="curve"/>
      <point x="243" y="768" type="line"/>
      <point x="250" y="750" type="line"/>
    </contour>
  </outline>
</glyph>
<glyph name="Acircumflex" format="1">
  <advance width="604"/>
  <unicode hex="00C2"/>
  <outline>
    <contour>
      <point x="417" y="27" type="line"/>
      <point x="351" y="22" type="line"/>
      <point x="351" y="0" type="line"/>
      <point x="612" y="0" type="line"/>
      <point x="612" y="22" type="line"/>
      <point x="548" y="27" type="line"/>
      <point x="309" y="717" type="line"/>
      <point x="287" y="717" type="line"/>
      <point x="56" y="27" type="line"/>
      <point x="-3" y="22" type="line"/>
      <point x="-3" y="0" type="line"/>
      <point x="150" y="0" type="line"/>
      <point x="150" y="22" type="line"/>
      <point x="84" y="27" type="line"/>
      <point x="141" y="202" type="line"/>
      <point x="359" y="202" type="line"/>
    </contour>
    <contour>
      <point x="249" y="535" type="line"/>
      <point x="251" y="535" type="line"/>
      <point x="349" y="235" type="line"/>
      <point x="149" y="231" type="line"/>
    </contour>
    <contour>
      <point x="156" y="769" type="line"/>
      <point x="183" y="747" type="line"/>
      <point x="297" y="827" type="line"/>
      <point x="299" y="827" type="line"/>
      <point x="417" y="748" type="line"/>
      <point x="447" y="771" type="line"/>
      <point x="303" y="905" type="line"/>
      <point x="301" y="905" type="line"/>
    </contour>
  </outline>
</glyph>
<glyph name="Atilde" format="1">
  <advance width="604"/>
  <unicode hex="00C3"/>
  <outline>
    <contour>
      <point x="417" y="27" type="line"/>
      <point x="351" y="22" type="line"/>
      <point x="351" y="0" type="line"/>
      <point x="612" y="0" type="line"/>
      <point x="612" y="22" type="line"/>
      <point x="548" y="27" type="line"/>
      <point x="309" y="717" type="line"/>
      <point x="287" y="717" type="line"/>
      <point x="56" y="27" type="line"/>
      <point x="-3" y="22" type="line"/>
      <point x="-3" y="0" type="line"/>
      <point x="150" y="0" type="line"/>
      <point x="150" y="22" type="line"/>
      <point x="84" y="27" type="line"/>
      <point x="141" y="202" type="line"/>
      <point x="359" y="202" type="line"/>
    </contour>
    <contour>
      <point x="249" y="535" type="line"/>
      <point x="251" y="535" type="line"/>
      <point x="349" y="235" type="line"/>
      <point x="149" y="231" type="line"/>
    </contour>
    <contour>
      <point x="284" y="825"/>
      <point x="297" y="781"/>
      <point x="356" y="781" type="curve" smooth="yes"/>
      <point x="401" y="781"/>
      <point x="443" y="815"/>
      <point x="457" y="889" type="curve"/>
      <point x="438" y="895" type="line"/>
      <point x="411" y="855"/>
      <point x="381" y="850"/>
      <point x="362" y="850" type="curve" smooth="yes"/>
      <point x="314" y="850"/>
      <point x="307" y="891"/>
      <point x="248" y="891" type="curve" smooth="yes"/>
      <point x="190" y="891"/>
      <point x="154" y="840"/>
      <point x="141" y="794" type="curve"/>
      <point x="159" y="786" type="line"/>
      <point x="185" y="819"/>
      <point x="214" y="825"/>
      <point x="238" y="825" type="curve" smooth="yes"/>
    </contour>
  </outline>
</glyph>
<glyph name="Ccedilla" format="1">
  <advance width="612"/>
  <unicode hex="00C7"/>
  <outline>
    <contour>
      <point x="394" y="-66"/>
      <point x="361" y="-73"/>
      <point x="341" y="-83" type="curve"/>
      <point x="362" y="-17" type="line"/>
      <point x="477" y="-15"/>
      <point x="548" y="48"/>
      <point x="592" y="155" type="curve"/>
      <point x="569" y="166" type="line"/>
      <point x="534" y="87"/>
      <point x="467" y="19"/>
      <point x="368" y="19" type="curve" smooth="yes"/>
      <point x="234" y="19"/>
      <point x="178" y="183"/>
      <point x="178" y="350" type="curve" smooth="yes"/>
      <point x="178" y="555"/>
      <point x="264" y="686"/>
      <point x="381" y="686" type="curve" smooth="yes"/>
      <point x="451" y="686"/>
      <point x="492" y="650"/>
      <point x="498" y="638" type="curve"/>
      <point x="498" y="636" type="line"/>
      <point x="496" y="637"/>
      <point x="493" y="637"/>
      <point x="490" y="637" type="curve" smooth="yes"/>
      <point x="455" y="637"/>
      <point x="427" y="607"/>
      <point x="427" y="570" type="curve" smooth="yes"/>
      <point x="427" y="532"/>
      <point x="455" y="503"/>
      <point x="496" y="503" type="curve" smooth="yes"/>
      <point x="540" y="503"/>
      <point x="564" y="537"/>
      <point x="564" y="573" type="curve" smooth="yes"/>
      <point x="564" y="650"/>
      <point x="472" y="714"/>
      <point x="372" y="714" type="curve" smooth="yes"/>
      <point x="146" y="714"/>
      <point x="48" y="512"/>
      <point x="48" y="336" type="curve" smooth="yes"/>
      <point x="48" y="166"/>
      <point x="104" y="-4"/>
      <point x="331" y="-16" type="curve"/>
      <point x="308" y="-106" type="line"/>
      <point x="325" y="-120" type="line"/>
      <point x="338" y="-111"/>
      <point x="355" y="-105"/>
      <point x="370" y="-105" type="curve" smooth="yes"/>
      <point x="392" y="-105"/>
      <point x="402" y="-120"/>
      <point x="402" y="-141" type="curve" smooth="yes"/>
      <point x="402" y="-180"/>
      <point x="362" y="-238"/>
      <point x="288" y="-249" type="curve"/>
      <point x="292" y="-273" type="line"/>
      <point x="360" y="-264"/>
      <point x="488" y="-213"/>
      <point x="488" y="-132" type="curve" smooth="yes"/>
      <point x="488" y="-91"/>
      <point x="458" y="-66"/>
      <point x="417" y="-66" type="curve" smooth="yes"/>
    </contour>
  </outline>
</glyph>
<glyph name="Eacute" format="1">
  <advance width="591"/>
  <unicode hex="00C9"/>
  <outline>
    <contour>
      <point x="236" y="665" type="line"/>
      <point x="273" y="668"/>
      <point x="310" y="670"/>
      <point x="340" y="670" type="curve" smooth="yes"/>
      <point x="456" y="670"/>
      <point x="483" y="598"/>
      <point x="501" y="498" type="curve"/>
      <point x="521" y="498" type="line"/>
      <point x="517" y="697" type="line"/>
      <point x="36" y="697" type="line"/>
      <point x="36" y="675" type="line"/>
      <point x="111" y="670" type="line"/>
      <point x="111" y="27" type="line"/>
      <point x="36" y="22" type="line"/>
      <point x="36" y="0" type="line"/>
      <point x="537" y="0" type="line"/>
      <point x="542" y="199" type="line"/>
      <point x="521" y="199" type="line"/>
      <point x="500" y="88"/>
      <point x="476" y="27"/>
      <point x="360" y="27" type="curve" smooth="yes"/>
      <point x="324" y="27"/>
      <point x="273" y="29"/>
      <point x="236" y="32" type="curve"/>
      <point x="236" y="345" type="line"/>
      <point x="251" y="347"/>
      <point x="281" y="347"/>
      <point x="289" y="347" type="curve" smooth="yes"/>
      <point x="355" y="347"/>
      <point x="384" y="319"/>
      <point x="384" y="228" type="curve"/>
      <point x="411" y="228" type="line"/>
      <point x="411" y="490" type="line"/>
      <point x="384" y="490" type="line"/>
      <point x="384" y="399"/>
      <point x="355" y="374"/>
      <point x="289" y="374" type="curve" smooth="yes"/>
      <point x="276" y="374"/>
      <point x="250" y="374"/>
      <point x="236" y="375" type="curve"/>
    </contour>
    <contour>
      <point x="417" y="789" type="line" smooth="yes"/>
      <point x="439" y="793"/>
      <point x="461" y="813"/>
      <point x="461" y="836" type="curve" smooth="yes"/>
      <point x="461" y="865"/>
      <point x="438" y="878"/>
      <point x="419" y="878" type="curve" smooth="yes"/>
      <point x="406" y="878"/>
      <point x="390" y="868"/>
      <point x="381" y="861" type="curve"/>
      <point x="263" y="768" type="line"/>
      <point x="270" y="750" type="line"/>
    </contour>
  </outline>
</glyph>
<glyph name="Ecircumflex" format="1">
  <advance width="591"/>
  <unicode hex="00CA"/>
  <outline>
    <contour>
      <point x="236" y="665" type="line"/>
      <point x="273" y="668"/>
      <point x="310" y="670"/>
      <point x="340" y="670" type="curve" smooth="yes"/>
      <point x="456" y="670"/>
      <point x="483" y="598"/>
      <point x="501" y="498" type="curve"/>
      <point x="521" y="498" type="line"/>
      <point x="517" y="697" type="line"/>
      <point x="36" y="697" type="line"/>
      <point x="36" y="675" type="line"/>
      <point x="111" y="670" type="line"/>
      <point x="111" y="27" type="line"/>
      <point x="36" y="22" type="line"/>
      <point x="36" y="0" type="line"/>
      <point x="537" y="0" type="line"/>
      <point x="542" y="199" type="line"/>
      <point x="521" y="199" type="line"/>
      <point x="500" y="88"/>
      <point x="476" y="27"/>
      <point x="360" y="27" type="curve" smooth="yes"/>
      <point x="324" y="27"/>
      <point x="273" y="29"/>
      <point x="236" y="32" type="curve"/>
      <point x="236" y="345" type="line"/>
      <point x="251" y="347"/>
      <point x="281" y="347"/>
      <point x="289" y="347" type="curve" smooth="yes"/>
      <point x="355" y="347"/>
      <point x="384" y="319"/>
      <point x="384" y="228" type="curve"/>
      <point x="411" y="228" type="line"/>
      <point x="411" y="490" type="line"/>
      <point x="384" y="490" type="line"/>
      <point x="384" y="399"/>
      <point x="355" y="374"/>
      <point x="289" y="374" type="curve" smooth="yes"/>
      <point x="276" y="374"/>
      <point x="250" y="374"/>
      <point x="236" y="375" type="curve"/>
    </contour>
    <contour>
      <point x="176" y="769" type="line"/>
      <point x="203" y="747" type="line"/>
      <point x="317" y="827" type="line"/>
      <point x="319" y="827" type="line"/>
      <point x="437" y="748" type="line"/>
      <point x="467" y="771" type="line"/>
      <point x="323" y="905" type="line"/>
      <point x="321" y="905" type="line"/>
    </contour>
  </outline>
</glyph>
<glyph name="Idieresis" format="1">
  <advance width="347"/>
  <unicode hex="00CF"/>
  <outline>
    <contour>
      <point x="311" y="697" type="line"/>
      <point x="36" y="697" type="line"/>
      <point x="36" y="675" type="line"/>
      <point x="111" y="670" type="line"/>
      <point x="111" y="27" type="line"/>
      <point x="36" y="22" type="line"/>
      <point x="36" y="0" type="line"/>
      <point x="311" y="0" type="line"/>
      <point x="311" y="22" type="line"/>
      <point x="236" y="27" type="line"/>
      <point x="236" y="670" type="line"/>
      <point x="311" y="675" type="line"/>
    </contour>
    <contour>
      <point x="22" y="797"/>
      <point x="45" y="768"/>
      <point x="82" y="768" type="curve" smooth="yes"/>
      <point x="118" y="768"/>
      <point x="142" y="797"/>
      <point x="142" y="833" type="curve" smooth="yes"/>
      <point x="142" y="870"/>
      <point x="118" y="899"/>
      <point x="82" y="899" type="curve" smooth="yes"/>
      <point x="45" y="899"/>
      <point x="22" y="870"/>
      <point x="22" y="833" type="curve" smooth="yes"/>
    </contour>
    <contour>
      <point x="198" y="797"/>
      <point x="221" y="768"/>
      <point x="257" y="768" type="curve" smooth="yes"/>
      <point x="294" y="768"/>
      <point x="317" y="797"/>
      <point x="317" y="833" type="curve" smooth="yes"/>
      <point x="317" y="870"/>
      <point x="294" y="899"/>
      <point x="257" y="899" type="curve" smooth="yes"/>
      <point x="221" y="899"/>
      <point x="198" y="870"/>
      <point x="198" y="833" type="curve" smooth="yes"/>
    </contour>
  </outline>
</glyph>
<glyph name="Eth" format="1">
  <advance width="694"/>
  <unicode hex="00D0"/>
  <outline>
    <contour>
      <point x="299" y="0" type="line" smooth="yes"/>
      <point x="544" y="0"/>
      <point x="644" y="152"/>
      <point x="644" y="345" type="curve" smooth="yes"/>
      <point x="644" y="556"/>
      <point x="553" y="697"/>
      <point x="283" y="697" type="curve" smooth="yes"/>
      <point x="37" y="697" type="line"/>
      <point x="37" y="675" type="line"/>
      <point x="112" y="670" type="line"/>
      <point x="112" y="369" type="line"/>
      <point x="25" y="369" type="line"/>
      <point x="25" y="338" type="line"/>
      <point x="112" y="338" type="line"/>
      <point x="112" y="27" type="line"/>
      <point x="37" y="22" type="line"/>
      <point x="37" y="0" type="line"/>
    </contour>
    <contour>
      <point x="274" y="27"/>
      <point x="258" y="28"/>
      <point x="237" y="32" type="curve"/>
      <point x="237" y="338" type="line"/>
      <point x="338" y="338" type="line"/>
      <point x="338" y="372" type="line"/>
      <point x="237" y="372" type="line"/>
      <point x="237" y="665" type="line"/>
      <point x="258" y="669"/>
      <point x="277" y="670"/>
      <point x="291" y="670" type="curve" smooth="yes"/>
      <point x="475" y="670"/>
      <point x="514" y="530"/>
      <point x="514" y="353" type="curve" smooth="yes"/>
      <point x="514" y="166"/>
      <point x="454" y="27"/>
      <point x="285" y="27" type="curve" smooth="yes"/>
    </contour>
  </outline>
</glyph>
<glyph name="Ocircumflex" format="1">
  <advance width="704"/>
  <unicode hex="00D4"/>
  <outline>
    <contour>
      <point x="178" y="590"/>
      <point x="261" y="687"/>
      <point x="354" y="687" type="curve" smooth="yes"/>
      <point x="458" y="687"/>
      <point x="526" y="583"/>
      <point x="526" y="358" type="curve" smooth="yes"/>
      <point x="526" y="151"/>
      <point x="462" y="10"/>
      <point x="351" y="10" type="curve" smooth="yes"/>
      <point x="237" y="10"/>
      <point x="178" y="168"/>
      <point x="178" y="357" type="curve" smooth="yes"/>
    </contour>
    <contour>
      <point x="47" y="131"/>
      <point x="160" y="-17"/>
      <point x="354" y="-17" type="curve" smooth="yes"/>
      <point x="561" y="-17"/>
      <point x="657" y="174"/>
      <point x="657" y="362" type="curve" smooth="yes"/>
      <point x="657" y="572"/>
      <point x="535" y="714"/>
      <point x="351" y="714" type="curve" smooth="yes"/>
      <point x="163" y="714"/>
      <point x="47" y="546"/>
      <point x="47" y="346" type="curve" smooth="yes"/>
    </contour>
    <contour>
      <point x="208" y="769" type="line"/>
      <point x="235" y="747" type="line"/>
      <point x="349" y="827" type="line"/>
      <point x="351" y="827" type="line"/>
      <point x="469" y="748" type="line"/>
      <point x="499" y="771" type="line"/>
      <point x="355" y="905" type="line"/>
      <point x="353" y="905" type="line"/>
    </contour>
  </outline>
</glyph>
<glyph name="Oslash" format="1">
  <advance width="704"/>
  <unicode hex="00D8"/>
  <outline>
    <contour>
      <point x="47" y="237"/>
      <point x="76" y="145"/>
      <point x="130" y="81" type="curve"/>
      <point x="47" y="-28" type="line"/>
      <point x="107" y="-28" type="line"/>
      <point x="164" y="47" type="line"/>
      <point x="213" y="6"/>
      <point x="276" y="-17"/>
      <point x="353" y="-17" type="curve" smooth="yes"/>
      <point x="560" y="-17"/>
      <point x="655" y="174"/>
      <point x="655" y="362" type="curve" smooth="yes"/>
      <point x="655" y="455"/>
      <point x="631" y="534"/>
      <point x="589" y="594" type="curve"/>
      <point x="674" y="707" type="line"/>
      <point x="614" y="707" type="line"/>
      <point x="557" y="632" type="line"/>
      <point x="505" y="684"/>
      <point x="434" y="714"/>
      <point x="350" y="714" type="curve" smooth="yes"/>
      <point x="162" y="714"/>
      <point x="47" y="546"/>
      <point x="47" y="346" type="curve" smooth="yes"/>
    </contour>
    <contour>
      <point x="170" y="605"/>
      <point x="255" y="687"/>
      <point x="353" y="687" type="curve" smooth="yes"/>
      <point x="421" y="687"/>
      <point x="474" y="652"/>
      <point x="504" y="568" type="curve"/>
      <point x="195" y="160" type="line"/>
      <point x="178" y="215"/>
      <point x="170" y="282"/>
      <point x="170" y="357" type="curve" smooth="yes"/>
    </contour>
    <contour>
      <point x="533" y="136"/>
      <point x="466" y="10"/>
      <point x="350" y="10" type="curve" smooth="yes"/>
      <point x="291" y="10"/>
      <point x="245" y="46"/>
      <point x="215" y="108" type="curve"/>
      <point x="520" y="510" type="line"/>
      <point x="528" y="468"/>
      <point x="533" y="417"/>
      <point x="533" y="358" type="curve" smooth="yes"/>
    </contour>
  </outline>
</glyph>
<glyph name="Ugrave" format="1">
  <advance width="699"/>
  <unicode hex="00D9"/>
  <outline>
    <contour>
      <point x="99" y="234" type="line" smooth="yes"/>
      <point x="99" y="113"/>
      <point x="119" y="-17"/>
      <point x="378" y="-17" type="curve" smooth="yes"/>
      <point x="559" y="-17"/>
      <point x="600" y="115"/>
      <point x="600" y="223" type="curve" smooth="yes"/>
      <point x="600" y="670" type="line"/>
      <point x="675" y="675" type="line"/>
      <point x="675" y="697" type="line"/>
      <point x="494" y="697" type="line"/>
      <point x="494" y="675" type="line"/>
      <point x="569" y="670" type="line"/>
      <point x="569" y="233" type="line" smooth="yes"/>
      <point x="569" y="125"/>
      <point x="532" y="17"/>
      <point x="394" y="17" type="curve" smooth="yes"/>
      <point x="233" y="17"/>
      <point x="224" y="136"/>
      <point x="224" y="214" type="curve" smooth="yes"/>
      <point x="224" y="670" type="line"/>
      <point x="299" y="675" type="line"/>
      <point x="299" y="697" type="line"/>
      <point x="24" y="697" type="line"/>
      <point x="24" y="675" type="line"/>
      <point x="99" y="670" type="line"/>
    </contour>
    <contour>
      <point x="438" y="753" type="line"/>
      <point x="445" y="771" type="line"/>
      <point x="327" y="865" type="line" smooth="yes"/>
      <point x="318" y="872"/>
      <point x="303" y="881"/>
      <point x="291" y="881" type="curve" smooth="yes"/>
      <point x="271" y="881"/>
      <point x="246" y="869"/>
      <point x="246" y="839" type="curve" smooth="yes"/>
      <point x="246" y="812"/>
      <point x="268" y="797"/>
      <point x="291" y="792" type="curve"/>
    </contour>
  </outline>
</glyph>
<glyph name="Uacute" format="1">
  <advance width="699"/>
  <unicode hex="00DA"/>
  <outline>
    <contour>
      <point x="99" y="234" type="line" smooth="yes"/>
      <point x="99" y="113"/>
      <point x="119" y="-17"/>
      <point x="378" y="-17" type="curve" smooth="yes"/>
      <point x="559" y="-17"/>
      <point x="600" y="115"/>
      <point x="600" y="223" type="curve" smooth="yes"/>
      <point x="600" y="670" type="line"/>
      <point x="675" y="675" type="line"/>
      <point x="675" y="697" type="line"/>
      <point x="494" y="697" type="line"/>
      <point x="494" y="675" type="line"/>
      <point x="569" y="670" type="line"/>
      <point x="569" y="233" type="line" smooth="yes"/>
      <point x="569" y="125"/>
      <point x="532" y="17"/>
      <point x="394" y="17" type="curve" smooth="yes"/>
      <point x="233" y="17"/>
      <point x="224" y="136"/>
      <point x="224" y="214" type="curve" smooth="yes"/>
      <point x="224" y="670" type="line"/>
      <point x="299" y="675" type="line"/>
      <point x="299" y="697" type="line"/>
      <point x="24" y="697" type="line"/>
      <point x="24" y="675" type="line"/>
      <point x="99" y="670" type="line"/>
    </contour>
    <contour>
      <point x="484" y="789" type="line"/>
      <point x="506" y="793"/>
      <point x="528" y="813"/>
      <point x="528" y="836" type="curve" smooth="yes"/>
      <point x="528" y="865"/>
      <point x="505" y="878"/>
      <point x="486" y="878" type="curve" smooth="yes"/>
      <point x="473" y="878"/>
      <point x="457" y="868"/>
      <point x="448" y="861" type="curve" smooth="yes"/>
      <point x="330" y="768" type="line"/>
      <point x="337" y="750" type="line"/>
    </contour>
  </outline>
</glyph>
<glyph name="Udieresis" format="1">
  <advance width="699"/>
  <unicode hex="00DC"/>
  <outline>
    <contour>
      <point x="99" y="234" type="line" smooth="yes"/>
      <point x="99" y="113"/>
      <point x="119" y="-17"/>
      <point x="378" y="-17" type="curve" smooth="yes"/>
      <point x="559" y="-17"/>
      <point x="600" y="115"/>
      <point x="600" y="223" type="curve" smooth="yes"/>
      <point x="600" y="670" type="line"/>
      <point x="675" y="675" type="line"/>
      <point x="675" y="697" type="line"/>
      <point x="494" y="697" type="line"/>
      <point x="494" y="675" type="line"/>
      <point x="569" y="670" type="line"/>
      <point x="569" y="233" type="line" smooth="yes"/>
      <point x="569" y="125"/>
      <point x="532" y="17"/>
      <point x="394" y="17" type="curve" smooth="yes"/>
      <point x="233" y="17"/>
      <point x="224" y="136"/>
      <point x="224" y="214" type="curve" smooth="yes"/>
      <point x="224" y="670" type="line"/>
      <point x="299" y="675" type="line"/>
      <point x="299" y="697" type="line"/>
      <point x="24" y="697" type="line"/>
      <point x="24" y="675" type="line"/>
      <point x="99" y="670" type="line"/>
    </contour>
    <contour>
      <point x="417" y="797"/>
      <point x="439" y="768"/>
      <point x="476" y="768" type="curve" smooth="yes"/>
      <point x="513" y="768"/>
      <point x="536" y="797"/>
      <point x="536" y="833" type="curve" smooth="yes"/>
      <point x="536" y="870"/>
      <point x="513" y="899"/>
      <point x="476" y="899" type="curve" smooth="yes"/>
      <point x="439" y="899"/>
      <point x="417" y="870"/>
      <point x="417" y="833" type="curve" smooth="yes"/>
    </contour>
    <contour>
      <point x="241" y="797"/>
      <point x="264" y="768"/>
      <point x="300" y="768" type="curve" smooth="yes"/>
      <point x="337" y="768"/>
      <point x="360" y="797"/>
      <point x="360" y="833" type="curve" smooth="yes"/>
      <point x="360" y="870"/>
      <point x="337" y="899"/>
      <point x="300" y="899" type="curve" smooth="yes"/>
      <point x="264" y="899"/>
      <point x="241" y="870"/>
      <point x="241" y="833" type="curve" smooth="yes"/>
    </contour>
  </outline>
</glyph>
<glyph name="Yacute" format="1">
  <advance width="595"/>
  <unicode hex="00DD"/>
  <outline>
    <contour>
      <point x="48" y="670" type="line"/>
      <point x="253" y="314" type="line"/>
      <point x="253" y="27" type="line"/>
      <point x="179" y="22" type="line"/>
      <point x="179" y="0" type="line"/>
      <point x="454" y="0" type="line"/>
      <point x="454" y="22" type="line"/>
      <point x="378" y="27" type="line"/>
      <point x="378" y="343" type="line"/>
      <point x="531" y="670" type="line"/>
      <point x="591" y="675" type="line"/>
      <point x="591" y="697" type="line"/>
      <point x="429" y="697" type="line"/>
      <point x="429" y="675" type="line"/>
      <point x="498" y="670" type="line"/>
      <point x="360" y="374" type="line"/>
      <point x="357" y="374" type="line"/>
      <point x="193" y="670" type="line"/>
      <point x="269" y="675" type="line"/>
      <point x="269" y="697" type="line"/>
      <point x="-18" y="697" type="line"/>
      <point x="-18" y="675" type="line"/>
    </contour>
    <contour>
      <point x="439" y="789" type="line" smooth="yes"/>
      <point x="462" y="793"/>
      <point x="483" y="813"/>
      <point x="483" y="836" type="curve" smooth="yes"/>
      <point x="483" y="865"/>
      <point x="460" y="878"/>
      <point x="441" y="878" type="curve" smooth="yes"/>
      <point x="429" y="878"/>
      <point x="412" y="868"/>
      <point x="403" y="861" type="curve"/>
      <point x="285" y="768" type="line"/>
      <point x="292" y="750" type="line"/>
    </contour>
  </outline>
</glyph>
<glyph name="adieresis" format="1">
  <advance width="491"/>
  <unicode hex="00E4"/>
  <outline>
    <contour>
      <point x="153" y="149"/>
      <point x="161" y="242"/>
      <point x="267" y="242" type="curve" smooth="yes"/>
      <point x="276" y="242"/>
      <point x="287" y="241"/>
      <point x="298" y="239" type="curve"/>
      <point x="298" y="172" type="line" smooth="yes"/>
      <point x="298" y="89"/>
      <point x="253" y="29"/>
      <point x="211" y="29" type="curve" smooth="yes"/>
      <point x="172" y="29"/>
      <point x="153" y="67"/>
      <point x="153" y="116" type="curve" smooth="yes"/>
    </contour>
    <contour>
      <point x="299" y="77" type="line"/>
      <point x="313" y="0" type="line"/>
      <point x="468" y="0" type="line"/>
      <point x="468" y="20" type="line"/>
      <point x="418" y="25" type="line"/>
      <point x="418" y="288" type="line" smooth="yes"/>
      <point x="418" y="422"/>
      <point x="395" y="505"/>
      <point x="229" y="505" type="curve" smooth="yes"/>
      <point x="141" y="505"/>
      <point x="54" y="450"/>
      <point x="54" y="370" type="curve" smooth="yes"/>
      <point x="54" y="337"/>
      <point x="76" y="305"/>
      <point x="116" y="305" type="curve" smooth="yes"/>
      <point x="152" y="305"/>
      <point x="178" y="331"/>
      <point x="178" y="365" type="curve" smooth="yes"/>
      <point x="178" y="405"/>
      <point x="156" y="425"/>
      <point x="123" y="425" type="curve" smooth="yes"/>
      <point x="118" y="425"/>
      <point x="113" y="425"/>
      <point x="108" y="424" type="curve"/>
      <point x="108" y="426" type="line"/>
      <point x="120" y="447"/>
      <point x="149" y="482"/>
      <point x="212" y="482" type="curve" smooth="yes"/>
      <point x="292" y="482"/>
      <point x="298" y="422"/>
      <point x="298" y="329" type="curve" smooth="yes"/>
      <point x="298" y="262" type="line"/>
      <point x="282" y="263"/>
      <point x="267" y="264"/>
      <point x="253" y="264" type="curve" smooth="yes"/>
      <point x="99" y="264"/>
      <point x="35" y="184"/>
      <point x="35" y="106" type="curve" smooth="yes"/>
      <point x="35" y="46"/>
      <point x="73" y="-15"/>
      <point x="158" y="-15" type="curve" smooth="yes"/>
      <point x="224" y="-15"/>
      <point x="267" y="17"/>
      <point x="298" y="77" type="curve"/>
    </contour>
    <contour>
      <point x="262" y="636"/>
      <point x="284" y="608"/>
      <point x="318" y="608" type="curve" smooth="yes"/>
      <point x="353" y="608"/>
      <point x="375" y="636"/>
      <point x="375" y="673" type="curve" smooth="yes"/>
      <point x="375" y="710"/>
      <point x="353" y="738"/>
      <point x="318" y="738" type="curve" smooth="yes"/>
      <point x="284" y="738"/>
      <point x="262" y="710"/>
      <point x="262" y="673" type="curve" smooth="yes"/>
    </contour>
    <contour>
      <point x="94" y="636"/>
      <point x="116" y="608"/>
      <point x="151" y="608" type="curve" smooth="yes"/>
      <point x="186" y="608"/>
      <point x="208" y="636"/>
      <point x="208" y="673" type="curve" smooth="yes"/>
      <point x="208" y="710"/>
      <point x="186" y="738"/>
      <point x="151" y="738" type="curve" smooth="yes"/>
      <point x="116" y="738"/>
      <point x="94" y="710"/>
      <point x="94" y="673" type="curve" smooth="yes"/>
    </contour>
  </outline>
</glyph>
<glyph name="ccedilla" format="1">
  <advance width="462"/>
  <unicode hex="00E7"/>
  <outline>
    <contour>
      <point x="241" y="-57"/>
      <point x="211" y="-64"/>
      <point x="192" y="-76" type="curve"/>
      <point x="213" y="-11" type="line"/>
      <point x="229" y="-13"/>
      <point x="246" y="-15"/>
      <point x="264" y="-15" type="curve" smooth="yes"/>
      <point x="325" y="-15"/>
      <point x="389" y="9"/>
      <point x="436" y="94" type="curve"/>
      <point x="417" y="105" type="line"/>
      <point x="370" y="26"/>
      <point x="319" y="19"/>
      <point x="285" y="19" type="curve" smooth="yes"/>
      <point x="220" y="19"/>
      <point x="165" y="71"/>
      <point x="165" y="244" type="curve" smooth="yes"/>
      <point x="165" y="377"/>
      <point x="197" y="480"/>
      <point x="286" y="480" type="curve" smooth="yes"/>
      <point x="338" y="480"/>
      <point x="363" y="447"/>
      <point x="371" y="434" type="curve"/>
      <point x="371" y="432" type="line"/>
      <point x="366" y="432"/>
      <point x="362" y="433"/>
      <point x="358" y="433" type="curve" smooth="yes"/>
      <point x="324" y="433"/>
      <point x="302" y="405"/>
      <point x="302" y="373" type="curve" smooth="yes"/>
      <point x="302" y="339"/>
      <point x="327" y="313"/>
      <point x="363" y="313" type="curve" smooth="yes"/>
      <point x="403" y="313"/>
      <point x="425" y="343"/>
      <point x="425" y="376" type="curve" smooth="yes"/>
      <point x="425" y="445"/>
      <point x="360" y="505"/>
      <point x="268" y="505" type="curve" smooth="yes"/>
      <point x="110" y="505"/>
      <point x="40" y="359"/>
      <point x="40" y="242" type="curve" smooth="yes"/>
      <point x="40" y="116"/>
      <point x="81" y="25"/>
      <point x="183" y="-4" type="curve"/>
      <point x="158" y="-95" type="line"/>
      <point x="172" y="-111" type="line"/>
      <point x="185" y="-102"/>
      <point x="202" y="-97"/>
      <point x="217" y="-97" type="curve" smooth="yes"/>
      <point x="235" y="-97"/>
      <point x="249" y="-110"/>
      <point x="249" y="-131" type="curve" smooth="yes"/>
      <point x="249" y="-170"/>
      <point x="202" y="-213"/>
      <point x="134" y="-225" type="curve"/>
      <point x="140" y="-251" type="line"/>
      <point x="208" y="-241"/>
      <point x="331" y="-204"/>
      <point x="331" y="-123" type="curve" smooth="yes"/>
      <point x="331" y="-82"/>
      <point x="305" y="-57"/>
      <point x="264" y="-57" type="curve" smooth="yes"/>
    </contour>
  </outline>
</glyph>
<glyph name="igrave" format="1">
  <advance width="286"/>
  <unicode hex="00EC"/>
  <outline>
    <contour>
      <point x="207" y="486" type="line"/>
      <point x="198" y="500" type="line"/>
      <point x="129" y="482" type="line"/>
      <point x="27" y="471" type="line"/>
      <point x="28" y="451" type="line"/>
      <point x="87" y="452" type="line"/>
      <point x="87" y="25" type="line"/>
      <point x="37" y="20" type="line"/>
      <point x="37" y="0" type="line"/>
      <point x="257" y="0" type="line"/>
      <point x="257" y="20" type="line"/>
      <point x="207" y="25" type="line"/>
    </contour>
    <contour>
      <point x="151" y="571" type="line"/>
      <point x="169" y="583" type="line"/>
      <point x="115" y="739" type="line"/>
      <point x="109" y="757"/>
      <point x="92" y="772"/>
      <point x="71" y="772" type="curve" smooth="yes"/>
      <point x="46" y="772"/>
      <point x="28" y="752"/>
      <point x="28" y="727" type="curve" smooth="yes"/>
      <point x="28" y="712"/>
      <point x="33" y="698"/>
      <point x="42" y="688" type="curve" smooth="yes"/>
    </contour>
  </outline>
</glyph>
<glyph name="iacute" format="1">
  <advance width="286"/>
  <unicode hex="00ED"/>
  <outline>
    <contour>
      <point x="207" y="486" type="line"/>
      <point x="198" y="500" type="line"/>
      <point x="129" y="482" type="line"/>
      <point x="27" y="471" type="line"/>
      <point x="28" y="451" type="line"/>
      <point x="87" y="452" type="line"/>
      <point x="87" y="25" type="line"/>
      <point x="37" y="20" type="line"/>
      <point x="37" y="0" type="line"/>
      <point x="257" y="0" type="line"/>
      <point x="257" y="20" type="line"/>
      <point x="207" y="25" type="line"/>
    </contour>
    <contour>
      <point x="227" y="682" type="line" smooth="yes"/>
      <point x="236" y="691"/>
      <point x="242" y="706"/>
      <point x="242" y="721" type="curve" smooth="yes"/>
      <point x="242" y="746"/>
      <point x="222" y="766"/>
      <point x="198" y="766" type="curve" smooth="yes"/>
      <point x="177" y="766"/>
      <point x="160" y="751"/>
      <point x="154" y="732" type="curve"/>
      <point x="100" y="577" type="line"/>
      <point x="118" y="564" type="line"/>
    </contour>
  </outline>
</glyph>
<glyph name="icircumflex" format="1">
  <advance width="286"/>
  <unicode hex="00EE"/>
  <outline>
    <contour>
      <point x="207" y="486" type="line"/>
      <point x="198" y="500" type="line"/>
      <point x="129" y="482" type="line"/>
      <point x="27" y="471" type="line"/>
      <point x="28" y="451" type="line"/>
      <point x="87" y="452" type="line"/>
      <point x="87" y="25" type="line"/>
      <point x="37" y="20" type="line"/>
      <point x="37" y="0" type="line"/>
      <point x="257" y="0" type="line"/>
      <point x="257" y="20" type="line"/>
      <point x="207" y="25" type="line"/>
    </contour>
    <contour>
      <point x="132" y="774" type="line"/>
      <point x="2" y="590" type="line"/>
      <point x="39" y="570" type="line"/>
      <point x="126" y="673" type="line"/>
      <point x="128" y="673" type="line"/>
      <point x="209" y="570" type="line"/>
      <point x="249" y="592" type="line"/>
      <point x="134" y="774" type="line"/>
    </contour>
  </outline>
</glyph>
<glyph name="idieresis" format="1">
  <advance width="286"/>
  <unicode hex="00EF"/>
  <outline>
    <contour>
      <point x="207" y="486" type="line"/>
      <point x="198" y="500" type="line"/>
      <point x="129" y="482" type="line"/>
      <point x="27" y="471" type="line"/>
      <point x="28" y="451" type="line"/>
      <point x="87" y="452" type="line"/>
      <point x="87" y="25" type="line"/>
      <point x="37" y="20" type="line"/>
      <point x="37" y="0" type="line"/>
      <point x="257" y="0" type="line"/>
      <point x="257" y="20" type="line"/>
      <point x="207" y="25" type="line"/>
    </contour>
    <contour>
      <point x="153" y="636"/>
      <point x="175" y="608"/>
      <point x="210" y="608" type="curve" smooth="yes"/>
      <point x="245" y="608"/>
      <point x="267" y="636"/>
      <point x="267" y="673" type="curve" smooth="yes"/>
      <point x="267" y="710"/>
      <point x="245" y="738"/>
      <point x="210" y="738" type="curve" smooth="yes"/>
      <point x="175" y="738"/>
      <point x="153" y="710"/>
      <point x="153" y="673" type="curve" smooth="yes"/>
    </contour>
    <contour>
      <point x="-14" y="636"/>
      <point x="8" y="608"/>
      <point x="42" y="608" type="curve" smooth="yes"/>
      <point x="77" y="608"/>
      <point x="100" y="636"/>
      <point x="100" y="673" type="curve" smooth="yes"/>
      <point x="100" y="710"/>
      <point x="77" y="738"/>
      <point x="42" y="738" type="curve" smooth="yes"/>
      <point x="8" y="738"/>
      <point x="-14" y="710"/>
      <point x="-14" y="673" type="curve" smooth="yes"/>
    </contour>
  </outline>
</glyph>
<glyph name="eth" format="1">
  <advance width="538"/>
  <unicode hex="00F0"/>
  <outline>
    <contour>
      <point x="153" y="594" type="line"/>
      <point x="170" y="579" type="line"/>
      <point x="227" y="649" type="line"/>
      <point x="285" y="613"/>
      <point x="318" y="550"/>
      <point x="337" y="483" type="curve"/>
      <point x="309" y="497"/>
      <point x="278" y="500"/>
      <point x="253" y="500" type="curve" smooth="yes"/>
      <point x="129" y="500"/>
      <point x="39" y="386"/>
      <point x="39" y="242" type="curve" smooth="yes"/>
      <point x="39" y="108"/>
      <point x="104" y="-15"/>
      <point x="261" y="-15" type="curve" smooth="yes"/>
      <point x="394" y="-15"/>
      <point x="484" y="81"/>
      <point x="484" y="272" type="curve" smooth="yes"/>
      <point x="484" y="438"/>
      <point x="398" y="614"/>
      <point x="250" y="680" type="curve"/>
      <point x="297" y="739" type="line"/>
      <point x="272" y="759" type="line"/>
      <point x="223" y="690" type="line"/>
      <point x="191" y="701"/>
      <point x="157" y="707"/>
      <point x="120" y="707" type="curve" smooth="yes"/>
      <point x="114" y="707"/>
      <point x="108" y="707"/>
      <point x="102" y="707" type="curve"/>
      <point x="102" y="682" type="line"/>
      <point x="141" y="682"/>
      <point x="174" y="675"/>
      <point x="202" y="663" type="curve"/>
    </contour>
    <contour>
      <point x="361" y="107"/>
      <point x="333" y="7"/>
      <point x="259" y="7" type="curve" smooth="yes"/>
      <point x="188" y="7"/>
      <point x="164" y="108"/>
      <point x="164" y="248" type="curve" smooth="yes"/>
      <point x="164" y="389"/>
      <point x="187" y="474"/>
      <point x="279" y="474" type="curve" smooth="yes"/>
      <point x="303" y="474"/>
      <point x="327" y="465"/>
      <point x="345" y="450" type="curve"/>
      <point x="361" y="373"/>
      <point x="361" y="293"/>
      <point x="361" y="242" type="curve" smooth="yes"/>
    </contour>
  </outline>
</glyph>
<glyph name="ntilde" format="1">
  <advance width="568"/>
  <unicode hex="00F1"/>
  <outline>
    <contour>
      <point x="207" y="486" type="line"/>
      <point x="198" y="500" type="line"/>
      <point x="129" y="482" type="line"/>
      <point x="27" y="471" type="line"/>
      <point x="28" y="451" type="line"/>
      <point x="87" y="452" type="line"/>
      <point x="87" y="25" type="line"/>
      <point x="37" y="20" type="line"/>
      <point x="37" y="0" type="line"/>
      <point x="257" y="0" type="line"/>
      <point x="257" y="20" type="line"/>
      <point x="207" y="25" type="line"/>
      <point x="207" y="316" type="line" smooth="yes"/>
      <point x="207" y="403"/>
      <point x="249" y="461"/>
      <point x="307" y="461" type="curve" smooth="yes"/>
      <point x="324" y="461"/>
      <point x="374" y="458"/>
      <point x="374" y="357" type="curve" smooth="yes"/>
      <point x="374" y="25" type="line"/>
      <point x="324" y="20" type="line"/>
      <point x="324" y="0" type="line"/>
      <point x="544" y="0" type="line"/>
      <point x="544" y="20" type="line"/>
      <point x="494" y="25" type="line"/>
      <point x="494" y="343" type="line" smooth="yes"/>
      <point x="494" y="486"/>
      <point x="407" y="505"/>
      <point x="357" y="505" type="curve" smooth="yes"/>
      <point x="280" y="505"/>
      <point x="234" y="460"/>
      <point x="207" y="420" type="curve"/>
      <point x="205" y="420" type="line"/>
    </contour>
    <contour>
      <point x="271" y="662"/>
      <point x="284" y="617"/>
      <point x="343" y="617" type="curve" smooth="yes"/>
      <point x="387" y="617"/>
      <point x="430" y="651"/>
      <point x="443" y="725" type="curve"/>
      <point x="424" y="731" type="line"/>
      <point x="397" y="691"/>
      <point x="367" y="687"/>
      <point x="349" y="687" type="curve" smooth="yes"/>
      <point x="300" y="687"/>
      <point x="293" y="728"/>
      <point x="234" y="728" type="curve" smooth="yes"/>
      <point x="176" y="728"/>
      <point x="140" y="677"/>
      <point x="127" y="630" type="curve"/>
      <point x="145" y="623" type="line"/>
      <point x="171" y="655"/>
      <point x="201" y="662"/>
      <point x="224" y="662" type="curve" smooth="yes"/>
    </contour>
  </outline>
</glyph>
<glyph name="odieresis" format="1">
  <advance width="523"/>
  <unicode hex="00F6"/>
  <outline>
    <contour>
      <point x="132" y="505"/>
      <point x="39" y="391"/>
      <point x="39" y="242" type="curve" smooth="yes"/>
      <point x="39" y="103"/>
      <point x="106" y="-15"/>
      <point x="263" y="-15" type="curve" smooth="yes"/>
      <point x="396" y="-15"/>
      <point x="484" y="101"/>
      <point x="484" y="245" type="curve" smooth="yes"/>
      <point x="484" y="375"/>
      <point x="413" y="505"/>
      <point x="264" y="505" type="curve" smooth="yes"/>
    </contour>
    <contour>
      <point x="190" y="7"/>
      <point x="164" y="108"/>
      <point x="164" y="248" type="curve" smooth="yes"/>
      <point x="164" y="383"/>
      <point x="190" y="483"/>
      <point x="261" y="483" type="curve" smooth="yes"/>
      <point x="337" y="483"/>
      <point x="359" y="393"/>
      <point x="359" y="242" type="curve" smooth="yes"/>
      <point x="359" y="107"/>
      <point x="334" y="7"/>
      <point x="261" y="7" type="curve" smooth="yes"/>
    </contour>
    <contour>
      <point x="295" y="636"/>
      <point x="317" y="608"/>
      <point x="352" y="608" type="curve" smooth="yes"/>
      <point x="386" y="608"/>
      <point x="409" y="636"/>
      <point x="409" y="673" type="curve" smooth="yes"/>
      <point x="409" y="710"/>
      <point x="386" y="738"/>
      <point x="352" y="738" type="curve" smooth="yes"/>
      <point x="317" y="738"/>
      <point x="295" y="710"/>
      <point x="295" y="673" type="curve" smooth="yes"/>
    </contour>
    <contour>
      <point x="127" y="636"/>
      <point x="149" y="608"/>
      <point x="184" y="608" type="curve" smooth="yes"/>
      <point x="219" y="608"/>
      <point x="241" y="636"/>
      <point x="241" y="673" type="curve" smooth="yes"/>
      <point x="241" y="710"/>
      <point x="219" y="738"/>
      <point x="184" y="738" type="curve" smooth="yes"/>
      <point x="149" y="738"/>
      <point x="127" y="710"/>
      <point x="127" y="673" type="curve" smooth="yes"/>
    </contour>
  </outline>
</glyph>
<glyph name="oslash" format="1">
  <advance width="523"/>
  <unicode hex="00F8"/>
  <outline>
    <contour>
      <point x="132" y="505"/>
      <point x="39" y="386"/>
      <point x="39" y="242" type="curve" smooth="yes"/>
      <point x="39" y="174"/>
      <point x="57" y="108"/>
      <point x="94" y="61" type="curve"/>
      <point x="26" y="-27" type="line"/>
      <point x="79" y="-27" type="line"/>
      <point x="124" y="30" type="line"/>
      <point x="159" y="2"/>
      <point x="205" y="-15"/>
      <point x="263" y="-15" type="curve" smooth="yes"/>
      <point x="396" y="-15"/>
      <point x="484" y="101"/>
      <point x="484" y="245" type="curve" smooth="yes"/>
      <point x="484" y="307"/>
      <point x="468" y="368"/>
      <point x="436" y="416" type="curve"/>
      <point x="505" y="505" type="line"/>
      <point x="451" y="505" type="line"/>
      <point x="408" y="449" type="line"/>
      <point x="372" y="483"/>
      <point x="325" y="505"/>
      <point x="264" y="505" type="curve" smooth="yes"/>
    </contour>
    <contour>
      <point x="157" y="383"/>
      <point x="190" y="483"/>
      <point x="261" y="483" type="curve" smooth="yes"/>
      <point x="309" y="483"/>
      <point x="338" y="448"/>
      <point x="353" y="385" type="curve"/>
      <point x="164" y="144" type="line"/>
      <point x="159" y="175"/>
      <point x="157" y="210"/>
      <point x="157" y="248" type="curve" smooth="yes"/>
    </contour>
    <contour>
      <point x="221" y="7"/>
      <point x="193" y="39"/>
      <point x="176" y="92" type="curve"/>
      <point x="363" y="329" type="line"/>
      <point x="365" y="303"/>
      <point x="367" y="273"/>
      <point x="367" y="242" type="curve" smooth="yes"/>
      <point x="367" y="107"/>
      <point x="334" y="7"/>
      <point x="261" y="7" type="curve" smooth="yes"/>
    </contour>
  </outline>
</glyph>
<glyph name="ugrave" format="1">
  <advance width="558"/>
  <unicode hex="00F9"/>
  <outline>
    <contour>
      <point x="376" y="0" type="line"/>
      <point x="529" y="0" type="line"/>
      <point x="529" y="20" type="line"/>
      <point x="479" y="25" type="line"/>
      <point x="479" y="486" type="line"/>
      <point x="470" y="500" type="line"/>
      <point x="401" y="482" type="line"/>
      <point x="299" y="471" type="line"/>
      <point x="299" y="451" type="line"/>
      <point x="359" y="451" type="line"/>
      <point x="359" y="180" type="line" smooth="yes"/>
      <point x="359" y="93"/>
      <point x="312" y="31"/>
      <point x="268" y="31" type="curve" smooth="yes"/>
      <point x="251" y="31"/>
      <point x="197" y="32"/>
      <point x="197" y="133" type="curve" smooth="yes"/>
      <point x="197" y="486" type="line"/>
      <point x="188" y="500" type="line"/>
      <point x="119" y="482" type="line"/>
      <point x="17" y="471" type="line"/>
      <point x="17" y="451" type="line"/>
      <point x="77" y="451" type="line"/>
      <point x="77" y="147" type="line" smooth="yes"/>
      <point x="77" y="4"/>
      <point x="170" y="-15"/>
      <point x="220" y="-15" type="curve" smooth="yes"/>
      <point x="292" y="-15"/>
      <point x="332" y="35"/>
      <point x="359" y="75" type="curve"/>
      <point x="361" y="75" type="line"/>
    </contour>
    <contour>
      <point x="290" y="571" type="line"/>
      <point x="308" y="583" type="line"/>
      <point x="253" y="739" type="line"/>
      <point x="248" y="757"/>
      <point x="230" y="772"/>
      <point x="209" y="772" type="curve" smooth="yes"/>
      <point x="185" y="772"/>
      <point x="166" y="752"/>
      <point x="166" y="727" type="curve" smooth="yes"/>
      <point x="166" y="712"/>
      <point x="171" y="698"/>
      <point x="181" y="688" type="curve" smooth="yes"/>
    </contour>
  </outline>
</glyph>
<glyph name="uacute" format="1">
  <advance width="558"/>
  <unicode hex="00FA"/>
  <outline>
    <contour>
      <point x="376" y="0" type="line"/>
      <point x="529" y="0" type="line"/>
      <point x="529" y="20" type="line"/>
      <point x="479" y="25" type="line"/>
      <point x="479" y="486" type="line"/>
      <point x="470" y="500" type="line"/>
      <point x="401" y="482" type="line"/>
      <point x="299" y="471" type="line"/>
      <point x="299" y="451" type="line"/>
      <point x="359" y="451" type="line"/>
      <point x="359" y="180" type="line" smooth="yes"/>
      <point x="359" y="93"/>
      <point x="312" y="31"/>
      <point x="268" y="31" type="curve" smooth="yes"/>
      <point x="251" y="31"/>
      <point x="197" y="32"/>
      <point x="197" y="133" type="curve" smooth="yes"/>
      <point x="197" y="486" type="line"/>
      <point x="188" y="500" type="line"/>
      <point x="119" y="482" type="line"/>
      <point x="17" y="471" type="line"/>
      <point x="17" y="451" type="line"/>
      <point x="77" y="451" type="line"/>
      <point x="77" y="147" type="line" smooth="yes"/>
      <point x="77" y="4"/>
      <point x="170" y="-15"/>
      <point x="220" y="-15" type="curve" smooth="yes"/>
      <point x="292" y="-15"/>
      <point x="332" y="35"/>
      <point x="359" y="75" type="curve"/>
      <point x="361" y="75" type="line"/>
    </contour>
    <contour>
      <point x="360" y="682" type="line" smooth="yes"/>
      <point x="369" y="691"/>
      <point x="375" y="706"/>
      <point x="375" y="721" type="curve" smooth="yes"/>
      <point x="375" y="746"/>
      <point x="355" y="766"/>
      <point x="331" y="766" type="curve" smooth="yes"/>
      <point x="310" y="766"/>
      <point x="293" y="751"/>
      <point x="287" y="732" type="curve"/>
      <point x="233" y="577" type="line"/>
      <point x="251" y="564" type="line"/>
    </contour>
  </outline>
</glyph>
<glyph name="ucircumflex" format="1">
  <advance width="558"/>
  <unicode hex="00FB"/>
  <outline>
    <contour>
      <point x="376" y="0" type="line"/>
      <point x="529" y="0" type="line"/>
      <point x="529" y="20" type="line"/>
      <point x="479" y="25" type="line"/>
      <point x="479" y="486" type="line"/>
      <point x="470" y="500" type="line"/>
      <point x="401" y="482" type="line"/>
      <point x="299" y="471" type="line"/>
      <point x="299" y="451" type="line"/>
      <point x="359" y="451" type="line"/>
      <point x="359" y="180" type="line" smooth="yes"/>
      <point x="359" y="93"/>
      <point x="312" y="31"/>
      <point x="268" y="31" type="curve" smooth="yes"/>
      <point x="251" y="31"/>
      <point x="197" y="32"/>
      <point x="197" y="133" type="curve" smooth="yes"/>
      <point x="197" y="486" type="line"/>
      <point x="188" y="500" type="line"/>
      <point x="119" y="482" type="line"/>
      <point x="17" y="471" type="line"/>
      <point x="17" y="451" type="line"/>
      <point x="77" y="451" type="line"/>
      <point x="77" y="147" type="line" smooth="yes"/>
      <point x="77" y="4"/>
      <point x="170" y="-15"/>
      <point x="220" y="-15" type="curve" smooth="yes"/>
      <point x="292" y="-15"/>
      <point x="332" y="35"/>
      <point x="359" y="75" type="curve"/>
      <point x="361" y="75" type="line"/>
    </contour>
    <contour>
      <point x="280" y="774" type="line"/>
      <point x="150" y="590" type="line"/>
      <point x="187" y="570" type="line"/>
      <point x="274" y="673" type="line"/>
      <point x="276" y="673" type="line"/>
      <point x="357" y="570" type="line"/>
      <point x="396" y="592" type="line"/>
      <point x="282" y="774" type="line"/>
    </contour>
  </outline>
</glyph>
<glyph name="udieresis" format="1">
  <advance width="558"/>
  <unicode hex="00FC"/>
  <outline>
    <contour>
      <point x="376" y="0" type="line"/>
      <point x="529" y="0" type="line"/>
      <point x="529" y="20" type="line"/>
      <point x="479" y="25" type="line"/>
      <point x="479" y="486" type="line"/>
      <point x="470" y="500" type="line"/>
      <point x="401" y="482" type="line"/>
      <point x="299" y="471" type="line"/>
      <point x="299" y="451" type="line"/>
      <point x="359" y="451" type="line"/>
      <point x="359" y="180" type="line" smooth="yes"/>
      <point x="359" y="93"/>
      <point x="312" y="31"/>
      <point x="268" y="31" type="curve" smooth="yes"/>
      <point x="251" y="31"/>
      <point x="197" y="32"/>
      <point x="197" y="133" type="curve" smooth="yes"/>
      <point x="197" y="486" type="line"/>
      <point x="188" y="500" type="line"/>
      <point x="119" y="482" type="line"/>
      <point x="17" y="471" type="line"/>
      <point x="17" y="451" type="line"/>
      <point x="77" y="451" type="line"/>
      <point x="77" y="147" type="line" smooth="yes"/>
      <point x="77" y="4"/>
      <point x="170" y="-15"/>
      <point x="220" y="-15" type="curve" smooth="yes"/>
      <point x="292" y="-15"/>
      <point x="332" y="35"/>
      <point x="359" y="75" type="curve"/>
      <point x="361" y="75" type="line"/>
    </contour>
    <contour>
      <point x="292" y="636"/>
      <point x="313" y="608"/>
      <point x="348" y="608" type="curve" smooth="yes"/>
      <point x="383" y="608"/>
      <point x="405" y="636"/>
      <point x="405" y="673" type="curve" smooth="yes"/>
      <point x="405" y="710"/>
      <point x="383" y="738"/>
      <point x="348" y="738" type="curve" smooth="yes"/>
      <point x="313" y="738"/>
      <point x="292" y="710"/>
      <point x="292" y="673" type="curve" smooth="yes"/>
    </contour>
    <contour>
      <point x="124" y="636"/>
      <point x="146" y="608"/>
      <point x="181" y="608" type="curve" smooth="yes"/>
      <point x="215" y="608"/>
      <point x="238" y="636"/>
      <point x="238" y="673" type="curve" smooth="yes"/>
      <point x="238" y="710"/>
      <point x="215" y="738"/>
      <point x="181" y="738" type="curve" smooth="yes"/>
      <point x="146" y="738"/>
      <point x="124" y="710"/>
      <point x="124" y="673" type="curve" smooth="yes"/>
    </contour>
  </outline>
</glyph>
<glyph name="thorn" format="1">
  <advance width="533"/>
  <unicode hex="00FE"/>
  <outline>
    <contour>
      <point x="191" y="693" type="line"/>
      <point x="183" y="707" type="line"/>
      <point x="114" y="689" type="line"/>
      <point x="12" y="678" type="line"/>
      <point x="12" y="658" type="line"/>
      <point x="72" y="658" type="line"/>
      <point x="72" y="-207" type="line"/>
      <point x="21" y="-212" type="line"/>
      <point x="21" y="-232" type="line"/>
      <point x="242" y="-232" type="line"/>
      <point x="242" y="-212" type="line"/>
      <point x="191" y="-207" type="line"/>
      <point x="191" y="10" type="line"/>
      <point x="217" y="-10"/>
      <point x="252" y="-15"/>
      <point x="271" y="-15" type="curve" smooth="yes"/>
      <point x="422" y="-15"/>
      <point x="493" y="106"/>
      <point x="493" y="250" type="curve" smooth="yes"/>
      <point x="493" y="467"/>
      <point x="370" y="505"/>
      <point x="324" y="505" type="curve" smooth="yes"/>
      <point x="271" y="505"/>
      <point x="230" y="485"/>
      <point x="193" y="422" type="curve"/>
      <point x="191" y="422" type="line"/>
    </contour>
    <contour>
      <point x="333" y="466"/>
      <point x="368" y="421"/>
      <point x="368" y="257" type="curve" smooth="yes"/>
      <point x="368" y="165"/>
      <point x="364" y="11"/>
      <point x="251" y="11" type="curve" smooth="yes"/>
      <point x="232" y="11"/>
      <point x="209" y="20"/>
      <point x="191" y="36" type="curve"/>
      <point x="191" y="341" type="line" smooth="yes"/>
      <point x="191" y="403"/>
      <point x="232" y="466"/>
      <point x="282" y="466" type="curve" smooth="yes"/>
    </contour>
  </outline>
</glyph>
<glyph name="dotlessi" format="1">
  <advance width="286"/>
  <unicode hex="0131"/>
  <outline>
    <contour>
      <point x="207" y="486" type="line"/>
      <point x="198" y="500" type="line"/>
      <point x="129" y="482" type="line"/>
      <point x="27" y="471" type="line"/>
      <point x="28" y="451" type="line"/>
      <point x="87" y="452" type="line"/>
      <point x="87" y="25" type="line"/>
      <point x="37" y="20" type="line"/>
      <point x="37" y="0" type="line"/>
      <point x="257" y="0" type="line"/>
      <point x="257" y="20" type="line"/>
      <point x="207" y="25" type="line"/>
    </contour>
  </outline>
</glyph>
<glyph name="oe" format="1">
  <advance width="791"/>
  <unicode hex="0153"/>
  <outline>
    <contour>
      <point x="414" y="68" type="line"/>
      <point x="452" y="5"/>
      <point x="501" y="-11"/>
      <point x="575" y="-11" type="curve" smooth="yes"/>
      <point x="639" y="-11"/>
      <point x="707" y="16"/>
      <point x="754" y="95" type="curve"/>
      <point x="735" y="107" type="line"/>
      <point x="691" y="33"/>
      <point x="638" y="21"/>
      <point x="598" y="21" type="curve" smooth="yes"/>
      <point x="525" y="21"/>
      <point x="477" y="79"/>
      <point x="477" y="234" type="curve" smooth="yes"/>
      <point x="477" y="264" type="line"/>
      <point x="736" y="264" type="line"/>
      <point x="750" y="276" type="line"/>
      <point x="750" y="409"/>
      <point x="700" y="505"/>
      <point x="561" y="505" type="curve" smooth="yes"/>
      <point x="481" y="505"/>
      <point x="438" y="463"/>
      <point x="413" y="424" type="curve"/>
      <point x="412" y="424" type="line"/>
      <point x="381" y="474"/>
      <point x="333" y="505"/>
      <point x="264" y="505" type="curve" smooth="yes"/>
      <point x="132" y="505"/>
      <point x="39" y="391"/>
      <point x="39" y="242" type="curve" smooth="yes"/>
      <point x="39" y="103"/>
      <point x="106" y="-15"/>
      <point x="263" y="-15" type="curve" smooth="yes"/>
      <point x="324" y="-15"/>
      <point x="375" y="4"/>
      <point x="413" y="68" type="curve"/>
    </contour>
    <contour>
      <point x="190" y="7"/>
      <point x="164" y="108"/>
      <point x="164" y="248" type="curve" smooth="yes"/>
      <point x="164" y="383"/>
      <point x="190" y="483"/>
      <point x="261" y="483" type="curve" smooth="yes"/>
      <point x="337" y="483"/>
      <point x="359" y="393"/>
      <point x="359" y="242" type="curve" smooth="yes"/>
      <point x="359" y="107"/>
      <point x="334" y="7"/>
      <point x="261" y="7" type="curve" smooth="yes"/>
    </contour>
    <contour>
      <point x="618" y="483"/>
      <point x="636" y="428"/>
      <point x="636" y="340" type="curve" smooth="yes"/>
      <point x="636" y="325"/>
      <point x="635" y="309"/>
      <point x="634" y="292" type="curve"/>
      <point x="477" y="286" type="line"/>
      <point x="480" y="396"/>
      <point x="498" y="483"/>
      <point x="563" y="483" type="curve" smooth="yes"/>
    </contour>
  </outline>
</glyph>
<glyph name="circumflex" format="1">
  <advance width="339"/>
  <unicode hex="02C6"/>
  <outline>
    <contour>
      <point x="174" y="774" type="line"/>
      <point x="44" y="590" type="line"/>
      <point x="81" y="570" type="line"/>
      <point x="168" y="673" type="line"/>
      <point x="170" y="673" type="line"/>
      <point x="251" y="570" type="line"/>
      <point x="291" y="592" type="line"/>
      <point x="176" y="774" type="line"/>
    </contour>
    <contour>
      <point x="169" y="534" type="move" name="_top"/>
    </contour>
  </outline>
</glyph>
<glyph name="ring" format="1">
  <advance width="265"/>
  <unicode hex="02DA"/>
  <outline>
    <contour>
      <point x="18" y="615"/>
      <point x="63" y="574"/>
      <point x="131" y="574" type="curve" smooth="yes"/>
      <point x="199" y="574"/>
      <point x="247" y="615"/>
      <point x="247" y="673" type="curve" smooth="yes"/>
      <point x="247" y="731"/>
      <point x="199" y="774"/>
      <point x="131" y="774" type="curve" smooth="yes"/>
      <point x="68" y="774"/>
      <point x="18" y="731"/>
      <point x="18" y="673" type="curve" smooth="yes"/>
    </contour>
    <contour>
      <point x="90" y="713"/>
      <point x="101" y="750"/>
      <point x="131" y="750" type="curve" smooth="yes"/>
      <point x="163" y="750"/>
      <point x="174" y="713"/>
      <point x="174" y="673" type="curve" smooth="yes"/>
      <point x="174" y="634"/>
      <point x="163" y="599"/>
      <point x="131" y="599" type="curve" smooth="yes"/>
      <point x="101" y="599"/>
      <point x="90" y="634"/>
      <point x="90" y="673" type="curve" smooth="yes"/>
    </contour>
    <contour>
      <point x="132" y="534" type="move" name="_top"/>
    </contour>
  </outline>
</glyph>
<glyph name="ogonek" format="1">
  <advance width="293"/>
  <unicode hex="02DB"/>
  <outline>
    <contour>
      <point x="50" y="-267"/>
      <point x="104" y="-267" type="curve" smooth="yes"/>
      <point x="141" y="-267"/>
      <point x="181" y="-251"/>
      <point x="217" y="-223" type="curve"/>
      <point x="203" y="-207" type="line"/>
      <point x="191" y="-213"/>
      <point x="179" y="-216"/>
      <point x="168" y="-216" type="curve" smooth="yes"/>
      <point x="108" y="-216"/>
      <point x="76" y="-143"/>
      <point x="115" y="-90" type="curve" smooth="yes"/>
      <point x="145" y="-50"/>
      <point x="199" y="-19"/>
      <point x="251" y="0" type="curve"/>
      <point x="251" y="11" type="line"/>
      <point x="111" y="-27"/>
      <point x="-17" y="-109"/>
      <point x="-1" y="-199" type="curve" smooth="yes"/>
      <point x="8" y="-246"/>
    </contour>
    <contour>
      <point x="251" y="0" type="move" name="ogonek"/>
    </contour>
  </outline>
</glyph>
<glyph name="tilde" format="1">
  <advance width="394"/>
  <unicode hex="02DC"/>
  <outline>
    <contour>
      <point x="187" y="662"/>
      <point x="200" y="617"/>
      <point x="259" y="617" type="curve" smooth="yes"/>
      <point x="304" y="617"/>
      <point x="346" y="651"/>
      <point x="360" y="725" type="curve"/>
      <point x="341" y="731" type="line"/>
      <point x="314" y="691"/>
      <point x="284" y="687"/>
      <point x="265" y="687" type="curve" smooth="yes"/>
      <point x="217" y="687"/>
      <point x="209" y="728"/>
      <point x="150" y="728" type="curve" smooth="yes"/>
      <point x="93" y="728"/>
      <point x="57" y="677"/>
      <point x="44" y="630" type="curve"/>
      <point x="62" y="623" type="line"/>
      <point x="88" y="655"/>
      <point x="117" y="662"/>
      <point x="141" y="662" type="curve" smooth="yes"/>
    </contour>
    <contour>
      <point x="202" y="534" type="move" name="_top"/>
    </contour>
  </outline>
</glyph>
<glyph name="endash" format="1">
  <advance width="521"/>
  <unicode hex="2013"/>
  <outline>
    <contour>
      <point x="57" y="343" type="line"/>
      <point x="57" y="289" type="line"/>
      <point x="464" y="289" type="line"/>
      <point x="464" y="343" type="line"/>
    </contour>
  </outline>
</glyph>
<glyph name="quoteright" format="1">
  <advance width="204"/>
  <unicode hex="2019"/>
  <outline>
    <contour>
      <point x="66" y="448" type="line"/>
      <point x="148" y="493"/>
      <point x="169" y="563"/>
      <point x="169" y="619" type="curve" smooth="yes"/>
      <point x="169" y="663"/>
      <point x="149" y="707"/>
      <point x="104" y="707" type="curve" smooth="yes"/>
      <point x="61" y="707"/>
      <point x="45" y="667"/>
      <point x="45" y="640" type="curve" smooth="yes"/>
      <point x="45" y="600"/>
      <point x="69" y="572"/>
      <point x="101" y="572" type="curve" smooth="yes"/>
      <point x="110" y="572"/>
      <point x="117" y="573"/>
      <point x="128" y="581" type="curve"/>
      <point x="130" y="581" type="line"/>
      <point x="130" y="553"/>
      <point x="116" y="503"/>
      <point x="59" y="473" type="curve"/>
    </contour>
  </outline>
</glyph>
<glyph name="quotedblleft" format="1">
  <advance width="367"/>
  <unicode hex="201C"/>
  <outline>
    <contour>
      <point x="305" y="707" type="line"/>
      <point x="223" y="662"/>
      <point x="202" y="591"/>
      <point x="202" y="536" type="curve" smooth="yes"/>
      <point x="202" y="492"/>
      <point x="222" y="448"/>
      <point x="267" y="448" type="curve" smooth="yes"/>
      <point x="311" y="448"/>
      <point x="326" y="488"/>
      <point x="326" y="515" type="curve" smooth="yes"/>
      <point x="326" y="555"/>
      <point x="302" y="583"/>
      <point x="271" y="583" type="curve" smooth="yes"/>
      <point x="261" y="583"/>
      <point x="254" y="582"/>
      <point x="243" y="574" type="curve"/>
      <point x="241" y="574" type="line"/>
      <point x="241" y="602"/>
      <point x="255" y="652"/>
      <point x="313" y="682" type="curve"/>
    </contour>
    <contour>
      <point x="144" y="707" type="line"/>
      <point x="62" y="662"/>
      <point x="41" y="591"/>
      <point x="41" y="536" type="curve" smooth="yes"/>
      <point x="41" y="492"/>
      <point x="61" y="448"/>
      <point x="105" y="448" type="curve" smooth="yes"/>
      <point x="149" y="448"/>
      <point x="165" y="488"/>
      <point x="165" y="515" type="curve" smooth="yes"/>
      <point x="165" y="555"/>
      <point x="141" y="583"/>
      <point x="109" y="583" type="curve" smooth="yes"/>
      <point x="100" y="583"/>
      <point x="93" y="582"/>
      <point x="82" y="574" type="curve"/>
      <point x="80" y="574" type="line"/>
      <point x="80" y="602"/>
      <point x="94" y="652"/>
      <point x="151" y="682" type="curve"/>
    </contour>
  </outline>
</glyph>
<glyph name="dagger" format="1">
  <advance width="430"/>
  <unicode hex="2020"/>
  <outline>
    <contour>
      <point x="230" y="137"/>
      <point x="244" y="176"/>
      <point x="269" y="249" type="curve"/>
      <point x="253" y="286"/>
      <point x="238" y="333"/>
      <point x="228" y="408" type="curve"/>
      <point x="277" y="408"/>
      <point x="324" y="393"/>
      <point x="373" y="387" type="curve" smooth="yes"/>
      <point x="379" y="386"/>
      <point x="387" y="385"/>
      <point x="395" y="385" type="curve" smooth="yes"/>
      <point x="420" y="385"/>
      <point x="446" y="393"/>
      <point x="446" y="422" type="curve" smooth="yes"/>
      <point x="446" y="451"/>
      <point x="421" y="458"/>
      <point x="395" y="458" type="curve" smooth="yes"/>
      <point x="387" y="458"/>
      <point x="380" y="458"/>
      <point x="373" y="457" type="curve" smooth="yes"/>
      <point x="324" y="450"/>
      <point x="276" y="435"/>
      <point x="227" y="435" type="curve"/>
      <point x="237" y="571"/>
      <point x="261" y="599"/>
      <point x="261" y="650" type="curve" smooth="yes"/>
      <point x="261" y="680"/>
      <point x="250" y="714"/>
      <point x="217" y="714" type="curve" smooth="yes"/>
      <point x="183" y="714"/>
      <point x="170" y="679"/>
      <point x="170" y="649" type="curve" smooth="yes"/>
      <point x="170" y="599"/>
      <point x="194" y="567"/>
      <point x="204" y="435" type="curve"/>
      <point x="155" y="435"/>
      <point x="107" y="450"/>
      <point x="59" y="457" type="curve" smooth="yes"/>
      <point x="51" y="458"/>
      <point x="43" y="458"/>
      <point x="36" y="458" type="curve" smooth="yes"/>
      <point x="10" y="458"/>
      <point x="-15" y="451"/>
      <point x="-15" y="422" type="curve" smooth="yes"/>
      <point x="-15" y="393"/>
      <point x="11" y="385"/>
      <point x="37" y="385" type="curve" smooth="yes"/>
      <point x="44" y="385"/>
      <point x="51" y="386"/>
      <point x="59" y="387" type="curve" smooth="yes"/>
      <point x="107" y="393"/>
      <point x="154" y="408"/>
      <point x="203" y="409" type="curve"/>
      <point x="193" y="334"/>
      <point x="178" y="286"/>
      <point x="163" y="249" type="curve"/>
      <point x="187" y="176"/>
      <point x="201" y="135"/>
      <point x="201" y="57" type="curve" smooth="yes"/>
      <point x="201" y="-78"/>
      <point x="170" y="-126"/>
      <point x="170" y="-177" type="curve" smooth="yes"/>
      <point x="170" y="-207"/>
      <point x="183" y="-242"/>
      <point x="217" y="-242" type="curve" smooth="yes"/>
      <point x="250" y="-242"/>
      <point x="261" y="-208"/>
      <point x="261" y="-178" type="curve" smooth="yes"/>
      <point x="261" y="-126"/>
      <point x="230" y="-82"/>
      <point x="230" y="57" type="curve" smooth="yes"/>
    </contour>
  </outline>
</glyph>
<glyph name="guilsinglleft" format="1">
  <advance width="291"/>
  <unicode hex="2039"/>
  <outline>
    <contour>
      <point x="23" y="305" type="line"/>
      <point x="232" y="116" type="line"/>
      <point x="253" y="138" type="line"/>
      <point x="123" y="315" type="line"/>
      <point x="123" y="316" type="line"/>
      <point x="253" y="494" type="line"/>
      <point x="232" y="516" type="line"/>
      <point x="23" y="327" type="line"/>
    </contour>
  </outline>
</glyph>
<glyph name="guilsinglright" format="1">
  <advance width="291"/>
  <unicode hex="203A"/>
  <outline>
    <contour>
      <point x="268" y="305" type="line"/>
      <point x="58" y="116" type="line"/>
      <point x="37" y="138" type="line"/>
      <point x="167" y="315" type="line"/>
      <point x="167" y="316" type="line"/>
      <point x="37" y="494" type="line"/>
      <point x="58" y="516" type="line"/>
      <point x="268" y="327" type="line"/>
    </contour>
  </outline>
</glyph>
<glyph name="fi" format="1">
  <advance width="611"/>
  <unicode hex="FB01"/>
  <outline>
    <contour>
      <point x="209" y="25" type="line"/>
      <point x="209" y="463" type="line"/>
      <point x="413" y="467" type="line"/>
      <point x="413" y="25" type="line"/>
      <point x="362" y="20" type="line"/>
      <point x="362" y="0" type="line"/>
      <point x="583" y="0" type="line"/>
      <point x="583" y="20" type="line"/>
      <point x="532" y="25" type="line"/>
      <point x="532" y="486" type="line"/>
      <point x="523" y="500" type="line"/>
      <point x="455" y="487" type="line"/>
      <point x="209" y="489" type="line"/>
      <point x="209" y="555" type="line" smooth="yes"/>
      <point x="209" y="657"/>
      <point x="273" y="685"/>
      <point x="345" y="685" type="curve" smooth="yes"/>
      <point x="400" y="685"/>
      <point x="429" y="669"/>
      <point x="431" y="663" type="curve"/>
      <point x="431" y="661" type="line"/>
      <point x="417" y="652"/>
      <point x="409" y="626"/>
      <point x="409" y="612" type="curve" smooth="yes"/>
      <point x="409" y="582"/>
      <point x="430" y="557"/>
      <point x="466" y="557" type="curve" smooth="yes"/>
      <point x="502" y="557"/>
      <point x="522" y="584"/>
      <point x="522" y="615" type="curve" smooth="yes"/>
      <point x="522" y="687"/>
      <point x="434" y="707"/>
      <point x="341" y="707" type="curve" smooth="yes"/>
      <point x="272" y="707"/>
      <point x="93" y="699"/>
      <point x="89" y="490" type="curve"/>
      <point x="18" y="490" type="line"/>
      <point x="18" y="469" type="line"/>
      <point x="89" y="466" type="line"/>
      <point x="89" y="25" type="line"/>
      <point x="40" y="20" type="line"/>
      <point x="40" y="0" type="line"/>
      <point x="279" y="0" type="line"/>
      <point x="279" y="20" type="line"/>
    </contour>
  </outline>
</glyph>
<glyph name=".notdef" format="1">
  <advance width="492"/>
  <outline>
    <contour>
      <point x="39" y="0" type="line"/>
      <point x="453" y="0" type="line"/>
      <point x="453" y="490" type="line"/>
      <point x="39" y="490" type="line"/>
    </contour>
    <contour>
      <point x="78" y="480" type="line"/>
      <point x="414" y="480" type="line"/>
      <point x="414" y="10" type="line"/>
      <point x="78" y="10" type="line"/>
    </contour>
  </outline>
</glyph>
<glyph name="breve.case" format="1">
  <advance width="340"/>
  <outline>
    <contour>
      <point x="294" y="907" type="line"/>
      <point x="287" y="858"/>
      <point x="240" y="833"/>
      <point x="171" y="833" type="curve" smooth="yes"/>
      <point x="97" y="833"/>
      <point x="54" y="858"/>
      <point x="46" y="907" type="curve"/>
      <point x="40" y="907" type="line"/>
      <point x="35" y="812"/>
      <point x="89" y="767"/>
      <point x="170" y="767" type="curve" smooth="yes"/>
      <point x="256" y="767"/>
      <point x="305" y="812"/>
      <point x="300" y="907" type="curve"/>
    </contour>
    <contour>
      <point x="171" y="697" type="move" name="_top"/>
    </contour>
  </outline>
</glyph>
<glyph name="caron.case" format="1">
  <advance width="403"/>
  <outline>
    <contour>
      <point x="364" y="911" type="line"/>
      <point x="350" y="931" type="line"/>
      <point x="204" y="854" type="line"/>
      <point x="202" y="854" type="line"/>
      <point x="53" y="930" type="line"/>
      <point x="39" y="909" type="line"/>
      <point x="198" y="763" type="line"/>
      <point x="200" y="763" type="line"/>
    </contour>
    <contour>
      <point x="199" y="744" type="move" name="_top"/>
    </contour>
  </outline>
</glyph>
<glyph name="circumflex.case" format="1">
  <advance width="403"/>
  <outline>
    <contour>
      <point x="59" y="791" type="line"/>
      <point x="85" y="768" type="line"/>
      <point x="200" y="848" type="line"/>
      <point x="202" y="848" type="line"/>
      <point x="319" y="770" type="line"/>
      <point x="350" y="792" type="line"/>
      <point x="206" y="927" type="line"/>
      <point x="204" y="927" type="line"/>
    </contour>
    <contour>
      <point x="201" y="744" type="move" name="_top"/>
    </contour>
  </outline>
</glyph>
<glyph name="foundryicon" format="1">
  <advance width="1480"/>
  <outline>
    <contour>
      <point x="1441" y="-6"/>
      <point x="1448" y="95"/>
      <point x="1441" y="140" type="curve" smooth="yes"/>
      <point x="1439" y="151"/>
      <point x="1438" y="145"/>
      <point x="1437" y="140" type="curve" smooth="yes"/>
      <point x="1425" y="78"/>
      <point x="1404" y="39"/>
      <point x="1376" y="18" type="curve"/>
      <point x="1358" y="44"/>
      <point x="1350" y="79"/>
      <point x="1350" y="122" type="curve"/>
      <point x="1396" y="143"/>
      <point x="1421" y="229"/>
      <point x="1421" y="300" type="curve" smooth="yes"/>
      <point x="1421" y="375"/>
      <point x="1401" y="407"/>
      <point x="1328" y="419" type="curve"/>
      <point x="1279" y="331"/>
      <point x="1265" y="177"/>
      <point x="1288" y="61" type="curve"/>
      <point x="1290" y="53" type="line"/>
      <point x="1285" y="43"/>
      <point x="1271" y="15"/>
      <point x="1259" y="18" type="curve"/>
      <point x="1241" y="80"/>
      <point x="1247" y="180"/>
      <point x="1256" y="245" type="curve"/>
      <point x="1247" y="255"/>
      <point x="1215" y="268"/>
      <point x="1201" y="265" type="curve"/>
      <point x="1197" y="261"/>
      <point x="1189" y="227"/>
      <point x="1188" y="221" type="curve"/>
      <point x="1175" y="225"/>
      <point x="1158" y="229"/>
      <point x="1144" y="229" type="curve"/>
      <point x="1115" y="198"/>
      <point x="1105" y="157"/>
      <point x="1103" y="112" type="curve"/>
      <point x="1103" y="102"/>
      <point x="1103" y="90"/>
      <point x="1103" y="79" type="curve"/>
      <point x="1095" y="59"/>
      <point x="1081" y="30"/>
      <point x="1058" y="20" type="curve"/>
      <point x="1046" y="28"/>
      <point x="1041" y="45"/>
      <point x="1037" y="62" type="curve"/>
      <point x="1071" y="73"/>
      <point x="1089" y="120"/>
      <point x="1089" y="162" type="curve" smooth="yes"/>
      <point x="1089" y="223"/>
      <point x="1051" y="245"/>
      <point x="998" y="241" type="curve"/>
      <point x="983" y="215"/>
      <point x="973" y="162"/>
      <point x="972" y="117" type="curve"/>
      <point x="969" y="57"/>
      <point x="991" y="0"/>
      <point x="1056" y="0" type="curve"/>
      <point x="1083" y="3"/>
      <point x="1101" y="22"/>
      <point x="1111" y="39" type="curve"/>
      <point x="1118" y="16"/>
      <point x="1135" y="0"/>
      <point x="1167" y="0" type="curve"/>
      <point x="1183" y="2"/>
      <point x="1205" y="15"/>
      <point x="1209" y="32" type="curve"/>
      <point x="1216" y="15"/>
      <point x="1235" y="-6"/>
      <point x="1258" y="-6" type="curve" smooth="yes"/>
      <point x="1279" y="-6"/>
      <point x="1294" y="13"/>
      <point x="1299" y="31" type="curve"/>
      <point x="1313" y="7"/>
      <point x="1336" y="-6"/>
      <point x="1366" y="-6" type="curve" smooth="yes"/>
    </contour>
    <contour>
      <point x="756" y="253"/>
      <point x="721" y="267"/>
      <point x="700" y="265" type="curve"/>
      <point x="707" y="218"/>
      <point x="725" y="124"/>
      <point x="708" y="47" type="curve" smooth="yes"/>
      <point x="707" y="42"/>
      <point x="704" y="32"/>
      <point x="695" y="30" type="curve"/>
      <point x="677" y="87"/>
      <point x="677" y="151"/>
      <point x="681" y="218" type="curve"/>
      <point x="665" y="233"/>
      <point x="634" y="239"/>
      <point x="622" y="241" type="curve"/>
      <point x="615" y="227"/>
      <point x="610" y="205"/>
      <point x="610" y="175" type="curve" smooth="yes"/>
      <point x="610" y="142"/>
      <point x="613" y="108"/>
      <point x="621" y="80" type="curve"/>
      <point x="612" y="59"/>
      <point x="592" y="23"/>
      <point x="560" y="13" type="curve"/>
      <point x="481" y="69"/>
      <point x="510" y="320"/>
      <point x="551" y="359" type="curve"/>
      <point x="562" y="345"/>
      <point x="574" y="293"/>
      <point x="569" y="260" type="curve"/>
      <point x="568" y="257"/>
      <point x="568" y="250"/>
      <point x="575" y="258" type="curve"/>
      <point x="598" y="278"/>
      <point x="615" y="303"/>
      <point x="615" y="333" type="curve" smooth="yes"/>
      <point x="615" y="411"/>
      <point x="558" y="424"/>
      <point x="520" y="432" type="curve"/>
      <point x="452" y="373"/>
      <point x="428" y="270"/>
      <point x="429" y="169" type="curve"/>
      <point x="431" y="81"/>
      <point x="467" y="-10"/>
      <point x="563" y="-10" type="curve" smooth="yes"/>
      <point x="604" y="-10"/>
      <point x="624" y="20"/>
      <point x="633" y="45" type="curve"/>
      <point x="646" y="18"/>
      <point x="667" y="0"/>
      <point x="696" y="0" type="curve" smooth="yes"/>
      <point x="704" y="0"/>
      <point x="712" y="6"/>
      <point x="715" y="11" type="curve"/>
      <point x="705" y="-71"/>
      <point x="703" y="-126"/>
      <point x="652" y="-160" type="curve"/>
      <point x="646" y="-136"/>
      <point x="650" y="-104"/>
      <point x="653" y="-81" type="curve"/>
      <point x="637" y="-64"/>
      <point x="612" y="-58"/>
      <point x="592" y="-58" type="curve"/>
      <point x="587" y="-74"/>
      <point x="583" y="-93"/>
      <point x="583" y="-113" type="curve" smooth="yes"/>
      <point x="583" y="-158"/>
      <point x="594" y="-182"/>
      <point x="638" y="-182" type="curve" smooth="yes"/>
      <point x="761" y="-182"/>
      <point x="796" y="38"/>
      <point x="772" y="235" type="curve"/>
    </contour>
    <contour>
      <point x="244" y="69" type="line"/>
      <point x="245" y="69" type="line"/>
      <point x="245" y="68"/>
      <point x="248" y="63"/>
      <point x="251" y="63" type="curve"/>
      <point x="249" y="62"/>
      <point x="248" y="61"/>
      <point x="248" y="59" type="curve" smooth="yes"/>
      <point x="248" y="57"/>
      <point x="260" y="54"/>
      <point x="273" y="47" type="curve"/>
      <point x="268" y="45"/>
      <point x="265" y="45"/>
      <point x="260" y="41" type="curve"/>
      <point x="261" y="40"/>
      <point x="262" y="40"/>
      <point x="263" y="39" type="curve"/>
      <point x="270" y="42"/>
      <point x="271" y="43"/>
      <point x="278" y="43" type="curve" smooth="yes"/>
      <point x="286" y="44"/>
      <point x="292" y="40"/>
      <point x="298" y="34" type="curve"/>
      <point x="298" y="34"/>
      <point x="299" y="34"/>
      <point x="300" y="36" type="curve"/>
      <point x="298" y="41"/>
      <point x="293" y="43"/>
      <point x="289" y="45" type="curve"/>
      <point x="297" y="45"/>
      <point x="301" y="43"/>
      <point x="307" y="41" type="curve"/>
      <point x="308" y="42"/>
      <point x="308" y="41"/>
      <point x="308" y="42" type="curve"/>
      <point x="298" y="49"/>
      <point x="289" y="49"/>
      <point x="283" y="48" type="curve"/>
      <point x="273" y="53"/>
      <point x="263" y="57"/>
      <point x="254" y="60" type="curve"/>
      <point x="258" y="63" type="line"/>
      <point x="263" y="65"/>
      <point x="263" y="71"/>
      <point x="263" y="72" type="curve"/>
      <point x="326" y="90"/>
      <point x="335" y="171"/>
      <point x="360" y="209" type="curve"/>
      <point x="370" y="222" type="line"/>
      <point x="370" y="222"/>
      <point x="371" y="222"/>
      <point x="370" y="223" type="curve"/>
      <point x="367" y="223"/>
      <point x="362" y="223"/>
      <point x="357" y="223" type="curve"/>
      <point x="361" y="236" type="line"/>
      <point x="361" y="236"/>
      <point x="362" y="238"/>
      <point x="360" y="238" type="curve" smooth="yes"/>
      <point x="347" y="232" type="line"/>
      <point x="342" y="236"/>
      <point x="335" y="238"/>
      <point x="328" y="238" type="curve" smooth="yes"/>
      <point x="311" y="238"/>
      <point x="293" y="225"/>
      <point x="287" y="204" type="curve"/>
      <point x="275" y="193"/>
      <point x="208" y="182"/>
      <point x="139" y="169" type="curve"/>
      <point x="126" y="169"/>
      <point x="42" y="178"/>
      <point x="40" y="179" type="curve" smooth="yes"/>
      <point x="37" y="179"/>
      <point x="35" y="175"/>
      <point x="39" y="172" type="curve" smooth="yes"/>
      <point x="57" y="155"/>
      <point x="104" y="157"/>
      <point x="117" y="144" type="curve" smooth="yes"/>
      <point x="135" y="125"/>
      <point x="162" y="89"/>
      <point x="202" y="75" type="curve"/>
      <point x="202" y="74"/>
      <point x="201" y="68"/>
      <point x="205" y="65" type="curve"/>
      <point x="202" y="63"/>
      <point x="201" y="63"/>
      <point x="201" y="61" type="curve" smooth="yes"/>
      <point x="201" y="58"/>
      <point x="213" y="53"/>
      <point x="224" y="44" type="curve"/>
      <point x="217" y="43"/>
      <point x="211" y="43"/>
      <point x="206" y="41" type="curve"/>
      <point x="206" y="40"/>
      <point x="206" y="39"/>
      <point x="207" y="38" type="curve"/>
      <point x="214" y="40"/>
      <point x="222" y="41"/>
      <point x="228" y="39" type="curve"/>
      <point x="235" y="38"/>
      <point x="240" y="31"/>
      <point x="244" y="25" type="curve"/>
      <point x="246" y="25"/>
      <point x="247" y="25"/>
      <point x="247" y="26" type="curve"/>
      <point x="245" y="32"/>
      <point x="241" y="37"/>
      <point x="238" y="39" type="curve"/>
      <point x="246" y="38"/>
      <point x="248" y="36"/>
      <point x="253" y="31" type="curve"/>
      <point x="254" y="32"/>
      <point x="255" y="32"/>
      <point x="255" y="33" type="curve"/>
      <point x="248" y="42"/>
      <point x="238" y="42"/>
      <point x="233" y="43" type="curve"/>
      <point x="225" y="49"/>
      <point x="215" y="56"/>
      <point x="208" y="61" type="curve"/>
      <point x="208" y="62"/>
      <point x="210" y="62"/>
      <point x="212" y="63" type="curve"/>
      <point x="216" y="63"/>
      <point x="220" y="68"/>
      <point x="221" y="70" type="curve"/>
      <point x="226" y="70"/>
      <point x="231" y="69"/>
      <point x="237" y="69" type="curve"/>
    </contour>
    <contour>
      <point x="782" y="247" type="line"/>
      <point x="809" y="181"/>
      <point x="813" y="71"/>
      <point x="816" y="-4" type="curve"/>
      <point x="844" y="-8"/>
      <point x="861" y="11"/>
      <point x="868" y="37" type="curve"/>
      <point x="875" y="55"/>
      <point x="875" y="89"/>
      <point x="875" y="110" type="curve"/>
      <point x="880" y="133"/>
      <point x="897" y="150"/>
      <point x="904" y="167" type="curve"/>
      <point x="909" y="133"/>
      <point x="929" y="120"/>
      <point x="963" y="129" type="curve"/>
      <point x="958" y="159"/>
      <point x="961" y="200"/>
      <point x="966" y="230" type="curve"/>
      <point x="957" y="245"/>
      <point x="933" y="253"/>
      <point x="907" y="255" type="curve"/>
      <point x="902" y="245"/>
      <point x="897" y="227"/>
      <point x="897" y="215" type="curve"/>
      <point x="892" y="199"/>
      <point x="883" y="180"/>
      <point x="868" y="153" type="curve"/>
      <point x="866" y="187"/>
      <point x="858" y="210"/>
      <point x="849" y="227" type="curve"/>
      <point x="838" y="239" type="line"/>
      <point x="822" y="242" type="line"/>
      <point x="807" y="245" type="line"/>
    </contour>
    <contour>
      <point x="1149" y="75"/>
      <point x="1167" y="169"/>
      <point x="1186" y="192" type="curve"/>
      <point x="1184" y="169"/>
      <point x="1183" y="112"/>
      <point x="1195" y="66" type="curve"/>
      <point x="1193" y="49"/>
      <point x="1176" y="31"/>
      <point x="1166" y="23" type="curve"/>
    </contour>
    <contour>
      <point x="1352" y="215"/>
      <point x="1364" y="290"/>
      <point x="1377" y="341" type="curve"/>
      <point x="1386" y="291"/>
      <point x="1377" y="191"/>
      <point x="1349" y="151" type="curve"/>
    </contour>
    <contour>
      <point x="1057" y="187"/>
      <point x="1063" y="171"/>
      <point x="1063" y="153" type="curve" smooth="yes"/>
      <point x="1063" y="123"/>
      <point x="1054" y="87"/>
      <point x="1036" y="84" type="curve"/>
      <point x="1036" y="124"/>
      <point x="1041" y="161"/>
      <point x="1052" y="195" type="curve"/>
    </contour>
    <contour>
      <point x="355" y="31"/>
      <point x="357" y="30"/>
      <point x="360" y="30" type="curve" smooth="yes"/>
      <point x="364" y="30"/>
      <point x="365" y="31"/>
      <point x="365" y="34" type="curve" smooth="yes"/>
      <point x="365" y="36"/>
      <point x="364" y="37"/>
      <point x="360" y="37" type="curve" smooth="yes"/>
      <point x="357" y="37"/>
      <point x="355" y="36"/>
      <point x="355" y="34" type="curve" smooth="yes"/>
    </contour>
    <contour>
      <point x="406" y="30" type="line"/>
      <point x="406" y="29"/>
      <point x="406" y="28"/>
      <point x="406" y="28" type="curve" smooth="yes"/>
      <point x="407" y="27"/>
      <point x="407" y="27"/>
      <point x="407" y="27" type="curve" smooth="yes"/>
      <point x="408" y="27"/>
      <point x="408" y="26"/>
      <point x="409" y="26" type="curve" smooth="yes"/>
      <point x="410" y="26" type="line"/>
      <point x="411" y="26" type="line" smooth="yes"/>
      <point x="413" y="27"/>
      <point x="414" y="28"/>
      <point x="414" y="30" type="curve" smooth="yes"/>
      <point x="414" y="31"/>
      <point x="414" y="32"/>
      <point x="413" y="33" type="curve"/>
      <point x="413" y="34"/>
      <point x="413" y="34"/>
      <point x="413" y="34" type="curve"/>
      <point x="412" y="35" type="line" smooth="yes"/>
      <point x="412" y="35"/>
      <point x="411" y="36"/>
      <point x="411" y="36" type="curve"/>
      <point x="410" y="36" type="line"/>
      <point x="410" y="36"/>
      <point x="409" y="35"/>
      <point x="409" y="35" type="curve"/>
      <point x="409" y="35"/>
      <point x="408" y="35"/>
      <point x="408" y="35" type="curve"/>
      <point x="408" y="34" type="line"/>
      <point x="407" y="34"/>
      <point x="407" y="34"/>
      <point x="407" y="33" type="curve" smooth="yes"/>
      <point x="406" y="32"/>
      <point x="406" y="31"/>
      <point x="406" y="30" type="curve"/>
    </contour>
    <contour>
      <point x="376" y="26"/>
      <point x="376" y="25"/>
      <point x="376" y="25" type="curve"/>
      <point x="376" y="25"/>
      <point x="376" y="24"/>
      <point x="377" y="24" type="curve"/>
      <point x="377" y="24" type="line"/>
      <point x="379" y="23" type="line"/>
      <point x="380" y="23" type="line"/>
      <point x="381" y="23" type="line"/>
      <point x="382" y="23" type="line"/>
      <point x="383" y="23" type="line" smooth="yes"/>
      <point x="384" y="23"/>
      <point x="385" y="24"/>
      <point x="386" y="26" type="curve" smooth="yes"/>
      <point x="386" y="27" type="line"/>
      <point x="386" y="28" type="line"/>
      <point x="385" y="29" type="line" smooth="yes"/>
      <point x="385" y="30"/>
      <point x="384" y="30"/>
      <point x="383" y="30" type="curve"/>
      <point x="381" y="30" type="line" smooth="yes"/>
      <point x="380" y="30"/>
      <point x="379" y="30"/>
      <point x="379" y="30" type="curve" smooth="yes"/>
      <point x="377" y="29"/>
      <point x="376" y="29"/>
      <point x="376" y="27" type="curve" smooth="yes"/>
    </contour>
  </outline>
</glyph>
<glyph name="grave.case" format="1">
  <advance width="264"/>
  <outline>
    <contour>
      <point x="226" y="774" type="line"/>
      <point x="233" y="793" type="line"/>
      <point x="115" y="886" type="line"/>
      <point x="106" y="893"/>
      <point x="91" y="902"/>
      <point x="79" y="902" type="curve" smooth="yes"/>
      <point x="60" y="902"/>
      <point x="35" y="890"/>
      <point x="35" y="861" type="curve" smooth="yes"/>
      <point x="35" y="833"/>
      <point x="57" y="818"/>
      <point x="79" y="813" type="curve" smooth="yes"/>
    </contour>
    <contour>
      <point x="164" y="744" type="move" name="_top"/>
    </contour>
  </outline>
</glyph>
